<?xml version="1.0" encoding="UTF-8"?>
<svg version="1.1" xmlns="http://www.w3.org/2000/svg" width="470" height="470">
<path d="M0 0 C155.1 0 310.2 0 470 0 C470 155.1 470 310.2 470 470 C314.9 470 159.8 470 0 470 C0 314.9 0 159.8 0 0 Z " fill="#245BAC" transform="translate(0,0)"/>
<path d="M0 0 C2.6875 2.375 2.6875 2.375 5 5 C5.56460938 5.52464844 6.12921875 6.04929688 6.7109375 6.58984375 C11.11136527 10.68391263 13.58523871 14.49434427 16 20 C18.42000843 17.83033727 19.97397795 16.05204409 21.4375 13.125 C26.13782961 3.72434078 34.44683295 -2.01391416 44.25 -5.375 C58.05059159 -9.66437306 70.10701382 -8.5632297 83.2265625 -2.51171875 C86.45467859 -0.75216815 88.50362762 1.31159897 91 4 C91.845625 4.845625 92.69125 5.69125 93.5625 6.5625 C94.7690625 7.7690625 94.7690625 7.7690625 96 9 C96.64453125 9.56847656 97.2890625 10.13695312 97.953125 10.72265625 C100.50280809 13.55942198 101.71767284 16.36101733 103.1875 19.875 C103.95126953 21.66550781 103.95126953 21.66550781 104.73046875 23.4921875 C109.91377834 37.81407061 106.53794927 51.83254069 100.5546875 65.23828125 C99.42162883 67.52705976 98.25591573 69.77676194 97 72 C96.34 72 95.68 72 95 72 C94.78988281 72.82371094 94.57976562 73.64742188 94.36328125 74.49609375 C92.62767987 78.9569374 90.09613368 82.29569629 87.1875 86.0625 C86.66607422 86.75666016 86.14464844 87.45082031 85.60742188 88.16601562 C82.63634574 92.07181234 79.52841011 95.5760494 76 99 C73.89820714 101.38203191 71.83136212 103.790392 69.76953125 106.20703125 C69.18558594 106.79871094 68.60164062 107.39039063 68 108 C67.34 108 66.68 108 66 108 C66 108.66 66 109.32 66 110 C63.53822957 112.75139048 61.17924401 114.88558893 58.0625 116.875 C55.45767212 118.68243159 54.06154952 119.98186563 52.125 122.375 C49.43764971 125.66420478 46.52350362 128.00183138 43.078125 130.4609375 C40.89660328 132.07657577 38.89537855 133.8128284 36.875 135.625 C32.89245793 139.16155995 29.11608157 142.29463948 24 144 C24 144.66 24 145.32 24 146 C19.05418054 150.025667 19.05418054 150.025667 15.75390625 149.9453125 C11.79719563 148.58712247 8.90143547 146.24496094 5.625 143.6875 C4.93108154 143.15568115 4.23716309 142.6238623 3.5222168 142.07592773 C1.33899865 140.39537069 -0.83193172 138.70004547 -3 137 C-3.70205566 136.45182617 -4.40411133 135.90365234 -5.12744141 135.33886719 C-7.15281077 133.75338199 -9.17196453 132.1604633 -11.1875 130.5625 C-12.10378174 129.83776489 -12.10378174 129.83776489 -13.03857422 129.09838867 C-16.58334721 126.25556558 -19.83698359 123.27361139 -23 120 C-23.845625 119.154375 -24.69125 118.30875 -25.5625 117.4375 C-26.366875 116.633125 -27.17125 115.82875 -28 115 C-28.763125 114.278125 -29.52625 113.55625 -30.3125 112.8125 C-32 111 -32 111 -32 109 C-32.59748047 108.72937744 -33.19496094 108.45875488 -33.81054688 108.17993164 C-51.91669171 98.42223784 -65.97633665 71.08522891 -72.5 52.375 C-76.00398369 39.7043447 -74.3561548 27.63452111 -68.46875 15.96484375 C-65.72479297 11.1830951 -65.72479297 11.1830951 -64 9 C-63.34 9 -62.68 9 -62 9 C-61.67 8.01 -61.34 7.02 -61 6 C-43.90166417 -10.43621348 -20.09927848 -12.50621772 0 0 Z " fill="#FDD038" transform="translate(218,186)"/>
<path d="M0 0 C5.43704034 4.64194195 7.55448344 12.63352174 8.46090889 19.48278809 C8.63777192 23.22110503 8.66481276 26.92953949 8.63110352 30.671875 C8.63625698 32.09111419 8.64354891 33.51034694 8.65278625 34.92956543 C8.67112759 38.74384287 8.65847279 42.55741139 8.63869596 46.37165833 C8.62216361 50.38807835 8.63114243 54.40445856 8.63621521 58.42089844 C8.64072004 65.16222293 8.62496695 71.9032685 8.59692383 78.64453125 C8.56487916 86.40692829 8.56489293 94.16882263 8.5821386 101.93125534 C8.59807501 109.4389747 8.59122464 116.94651209 8.57420158 124.45422363 C8.56737979 127.63095018 8.56831284 130.80752871 8.57574654 133.98425293 C8.58348274 137.73398924 8.57104828 141.48316261 8.54389763 145.23280334 C8.53387492 147.24237853 8.54311959 149.25202189 8.55322266 151.26159668 C8.44494835 161.70700367 6.80781192 172.35075417 0.3125 180.875 C-0.28949219 181.69742188 -0.89148438 182.51984375 -1.51171875 183.3671875 C-8.14394835 190.38464865 -16.14042331 194.99888495 -24.5625 199.5625 C-26.78878419 200.78850737 -29.01401858 202.01642269 -31.23828125 203.24609375 C-32.36314941 203.86726074 -33.48801758 204.48842773 -34.64697266 205.12841797 C-39.8903763 208.05516417 -45.07180231 211.08478789 -50.25 214.125 C-57.64264811 218.46002821 -65.05151408 222.76158126 -72.5 227 C-81.0845133 231.88756296 -89.6254479 236.846927 -98.15307617 241.83300781 C-105.4884279 246.12179095 -112.8374163 250.38625112 -120.20166016 254.62524414 C-120.92530762 255.04281982 -121.64895508 255.46039551 -122.39453125 255.890625 C-123.02206299 256.25188477 -123.64959473 256.61314453 -124.29614258 256.98535156 C-125.89624274 257.93821247 -127.4504497 258.96696646 -129 260 C-129.99 260 -130.98 260 -132 260 C-132 246.47 -132 232.94 -132 219 C-128.98875 217.288125 -125.9775 215.57625 -122.875 213.8125 C-115.24898385 209.46607834 -107.66949743 205.04878639 -100.125 200.5625 C-91.74456064 195.58299098 -83.29499255 190.74230963 -74.79272461 185.97412109 C-66.30644351 181.20452821 -57.90792644 176.29003822 -49.53955078 171.31665039 C-48.10264893 170.46961548 -48.10264893 170.46961548 -46.63671875 169.60546875 C-45.36380981 168.84979614 -45.36380981 168.84979614 -44.06518555 168.07885742 C-42 167 -42 167 -40 167 C-39.773125 166.46375 -39.54625 165.9275 -39.3125 165.375 C-38 163 -38 163 -35.625 160.4375 C-29.25285749 152.90772897 -28.42407068 143.55928784 -28.62524414 134.09033203 C-28.6326915 132.95558945 -28.64013885 131.82084686 -28.64781189 130.65171814 C-28.66626611 128.20835278 -28.69390335 125.7650425 -28.72990608 123.32187271 C-28.78592177 119.4549666 -28.81551918 115.58864152 -28.83824158 111.72140503 C-28.89949021 102.12691378 -29.00047563 92.53295211 -29.11016846 82.93890381 C-29.20253728 74.80972179 -29.27466569 66.68097551 -29.31863213 58.55135727 C-29.34730974 54.7413491 -29.40527975 50.93248117 -29.46388245 47.12283325 C-29.47884572 44.79299848 -29.49234799 42.46315371 -29.50415039 40.13330078 C-29.52841095 39.07452225 -29.55267151 38.01574371 -29.57766724 36.92488098 C-29.56960159 29.72471534 -29.56960159 29.72471534 -26.5766449 25.91671753 C-25.72635208 25.28420074 -24.87605927 24.65168396 -24 24 C-23.42894531 23.40574219 -22.85789062 22.81148437 -22.26953125 22.19921875 C-20.88426073 20.76195416 -19.443214 19.37907116 -18 18 C-17.34 18 -16.68 18 -16 18 C-15.731875 17.360625 -15.46375 16.72125 -15.1875 16.0625 C-14 14 -14 14 -11 13 C-11 12.34 -11 11.68 -11 11 C-9.38161281 9.28641357 -7.70328319 7.6292274 -6 6 C-4.89324444 4.89842831 -3.78904707 3.79428007 -2.6875 2.6875 C-1.3571875 1.3571875 -1.3571875 1.3571875 0 0 Z " fill="#FAFCFC" transform="translate(384,152)"/>
<path d="M0 0 C0.91096436 0.8235498 1.82192871 1.64709961 2.76049805 2.49560547 C5.8784519 5.2148032 9.13170295 7.31820513 12.65551758 9.47705078 C20.93182472 15.23534796 28.22754076 21.78822955 30.7153244 31.9105072 C33.49267263 48.86588949 32.42477372 66.47167682 31.87583363 83.59359574 C31.58896755 92.65192676 31.47670303 101.71295748 31.36501026 110.77487373 C31.28375154 117.27667817 31.17615214 123.77472848 30.98429871 130.27438354 C30.95638748 131.46715912 30.92847626 132.65993469 30.89971924 133.88885498 C30.84788012 136.09980716 30.78069172 138.31048144 30.6943512 140.52035522 C30.5118207 149.85975311 33.25053047 157.15409046 39.6953125 164 C44.15022226 167.86595559 49.26778653 170.65625345 54.38916016 173.53173828 C57.4703864 175.26453187 60.5379832 177.02034149 63.60546875 178.77734375 C67.26595768 180.87354586 70.92722108 182.9683256 74.59277344 185.05566406 C81.0673368 188.74308328 87.52658222 192.45263071 93.9375 196.25 C100.25979229 199.9939007 106.62015343 203.66751035 113 207.3125 C114.29151978 208.05064941 114.29151978 208.05064941 115.60913086 208.80371094 C121.05276391 211.90771752 126.52116725 214.95620403 132 218 C132 231.86 132 245.72 132 260 C116.04221165 252.02110583 116.04221165 252.02110583 109.625 248.125 C108.16745165 247.25389355 106.70910031 246.38412942 105.25 245.515625 C104.53457031 245.08958984 103.81914062 244.66355469 103.08203125 244.22460938 C99.95917524 242.38780758 96.79331625 240.63180141 93.625 238.875 C86.20610806 234.74843139 78.91713688 230.40752908 71.625 226.0625 C64.07599917 221.56534375 56.51807095 217.1004048 48.8125 212.875 C41.62792741 208.93441941 34.52114483 204.86933736 27.4375 200.75 C26.43759033 200.1710498 25.43768066 199.59209961 24.4074707 198.99560547 C10.56297221 190.91761633 -0.25235709 183.59041332 -5.36805725 167.78432655 C-6.67787242 162.0133083 -6.43382337 156.10430939 -6.41992188 150.21557617 C-6.42727336 148.7361945 -6.43586271 147.25681854 -6.44558716 145.77745056 C-6.46769986 141.78138612 -6.47073897 137.78552852 -6.46883965 133.78941131 C-6.46871945 130.4423353 -6.47730346 127.09530233 -6.48561716 123.74823838 C-6.50481486 115.84506882 -6.50774854 107.94200485 -6.50097656 100.03881836 C-6.49434033 91.9117785 -6.51719147 83.78519302 -6.55429029 75.65824527 C-6.58507727 68.65748314 -6.59633756 61.65686649 -6.59245348 54.65603811 C-6.59039503 50.48503715 -6.595724 46.31438986 -6.62034607 42.1434536 C-6.64275994 38.21728304 -6.64061561 34.29184636 -6.62041855 30.36567116 C-6.61703401 28.93390954 -6.62198596 27.50209709 -6.63640213 26.07040405 C-6.72424769 16.69095692 -5.45151123 9.33102903 -1 1 C-0.67 0.67 -0.34 0.34 0 0 Z " fill="#FCFEFE" transform="translate(84,152)"/>
<path d="M0 0 C0.66128906 -0.020625 1.32257813 -0.04125 2.00390625 -0.0625 C12.76535764 -0.14512151 21.32688288 4.53611616 30.4375 9.8125 C32.08613037 10.75186401 32.08613037 10.75186401 33.76806641 11.71020508 C41.31597154 16.02305709 48.82543584 20.40248594 56.30078125 24.83984375 C60.66071625 27.42621004 65.04754601 29.96501408 69.4375 32.5 C77.77872615 37.31927927 86.10431312 42.16496739 94.41821289 47.03125 C99.30439826 49.88860365 104.19938177 52.72670599 109.125 55.515625 C110.01316406 56.0209375 110.90132812 56.52625 111.81640625 57.046875 C113.48733571 57.99586089 115.16168904 58.9388503 116.83984375 59.875 C118.71772396 60.94430262 120.55221703 62.08926556 122.375 63.25 C122.375 63.91 122.375 64.57 122.375 65.25 C120.93041992 66.66015625 120.93041992 66.66015625 118.91796875 68.3125 C115.78955465 70.96899962 112.88179264 73.71574139 110.05078125 76.6875 C109.33212891 77.43644531 108.61347656 78.18539062 107.87304688 78.95703125 C106.3948026 80.50793275 104.92626915 82.06813905 103.46679688 83.63671875 C102.39461914 84.74466797 102.39461914 84.74466797 101.30078125 85.875 C100.66567627 86.54789062 100.03057129 87.22078125 99.3762207 87.9140625 C97.375 89.25 97.375 89.25 94.8371582 89.06591797 C91.39504507 87.92525936 88.36616794 86.19508667 85.25 84.375 C84.1995752 83.7728064 84.1995752 83.7728064 83.12792969 83.15844727 C80.8726521 81.86293106 78.62345312 80.55731904 76.375 79.25 C74.94548377 78.422881 73.51579703 77.59605663 72.0859375 76.76953125 C69.82197174 75.45989867 67.558767 74.14901345 65.29736328 72.83496094 C60.36649901 69.97162523 55.42314864 67.13099684 50.46875 64.30859375 C49.8685202 63.96657425 49.26829041 63.62455475 48.64987183 63.27217102 C46.1963845 61.87432218 43.74283294 60.47658795 41.28863525 59.07998657 C33.1931833 54.4711816 25.16102779 49.7839306 17.2578125 44.8515625 C9.55039866 40.56966592 0.99858826 39.67485346 -7.625 41.25 C-12.84955389 42.97969102 -17.50138677 45.90434013 -22.17431641 48.76074219 C-24.84723044 50.38504739 -27.54985854 51.94944004 -30.26171875 53.5078125 C-38.43479342 58.21527954 -46.55063566 63.01879667 -54.6640625 67.828125 C-55.63512939 68.40336914 -56.60619629 68.97861328 -57.60668945 69.57128906 C-59.42425923 70.6491338 -61.24061147 71.72903581 -63.05541992 72.81152344 C-68.3703965 75.96897595 -73.75234696 78.96723174 -79.19067383 81.90673828 C-82.71653565 83.85230961 -86.07043764 86.03538652 -89.43359375 88.24609375 C-91.625 89.25 -91.625 89.25 -93.40942383 89.14697266 C-96.69881427 87.81526792 -98.83741503 85.40510488 -101.265625 82.90234375 C-101.79267029 82.37105362 -102.31971558 81.83976349 -102.86273193 81.29237366 C-104.54067187 79.59767175 -106.20786728 77.89282783 -107.875 76.1875 C-109.01232745 75.03512255 -110.15034066 73.88342148 -111.2890625 72.73242188 C-114.07571992 69.91272816 -116.85278792 67.08389412 -119.625 64.25 C-116.78501025 61.18057061 -114.02637415 59.15081258 -110.36328125 57.1484375 C-109.33581787 56.58125 -108.30835449 56.0140625 -107.24975586 55.4296875 C-106.15671143 54.83414063 -105.06366699 54.23859375 -103.9375 53.625 C-101.65288571 52.36335463 -99.3690322 51.10033066 -97.0859375 49.8359375 C-95.4167627 48.91312988 -95.4167627 48.91312988 -93.71386719 47.97167969 C-89.79556853 45.78768963 -85.9198364 43.53954067 -82.0625 41.25 C-81.40330566 40.85941406 -80.74411133 40.46882813 -80.06494141 40.06640625 C-78.6778661 39.24414193 -77.29099026 38.42154105 -75.90429688 37.59863281 C-62.8564284 29.87836445 -49.73458962 22.28165479 -36.5831604 14.73931885 C-35.37965627 14.04878008 -34.1766566 13.35736124 -32.97421265 12.66497803 C-11.11308345 0.08371438 -11.11308345 0.08371438 0 0 Z " fill="#FCFDFD" transform="translate(233.625,66.75)"/>
<path d="M0 0 C2.5625 2.375 2.5625 2.375 5 5 C6.2684375 6.2684375 6.2684375 6.2684375 7.5625 7.5625 C8.366875 8.366875 9.17125 9.17125 10 10 C10.70125 10.5775 11.4025 11.155 12.125 11.75 C14.89943081 15.07931698 15.83621051 18.87383728 17 23 C15.35 23 13.7 23 12 23 C12 21.68 12 20.36 12 19 C11.34 19.33 10.68 19.66 10 20 C7 13.375 7 13.375 7 10 C6.34 9.67 5.68 9.34 5 9 C5.33 8.34 5.66 7.68 6 7 C5.38125 6.690625 4.7625 6.38125 4.125 6.0625 C2.75 5.375 1.375 4.6875 0 4 C-3.37328752 3.68416554 -6.74734365 3.48866238 -10.12890625 3.28125 C-13 3 -13 3 -14 2 C-20.63469308 1.22114473 -27.32134459 0.84468243 -34 1 C-34.33 0.34 -34.66 -0.32 -35 -1 C-31.5647952 -3.29013653 -30.014669 -3.17842973 -26 -3 C-26 -3.33 -26 -3.66 -26 -4 C-29.63 -4 -33.26 -4 -37 -4 C-37 -3.34 -37 -2.68 -37 -2 C-39.31 -1.67 -41.62 -1.34 -44 -1 C-44 0.32 -44 1.64 -44 3 C-45.2684375 3.12375 -45.2684375 3.12375 -46.5625 3.25 C-51.88765669 4.41185237 -55.76186164 6.24264233 -58.9375 10.75 C-59.288125 11.4925 -59.63875 12.235 -60 13 C-61.32 12.67 -62.64 12.34 -64 12 C-48.2381135 -8.32453785 -22.14755513 -12.07197724 0 0 Z " fill="#F9D13D" transform="translate(304,185)"/>
<path d="M0 0 C4.875 0.875 4.875 0.875 6 2 C6.47930671 5.20536362 6.87206832 8.41058178 7.25 11.62890625 C7.40362705 15.11109275 7.40362705 15.11109275 9 18 C9.04063832 19.66617115 9.042721 21.33388095 9 23 C11.15020819 22.16206673 11.15020819 22.16206673 12.0625 20.0625 C13.37784905 15.76569309 13.67036215 11.46746033 14 7 C14.66 7 15.32 7 16 7 C16.02684679 9.64590014 16.04676357 12.29153096 16.0625 14.9375 C16.07087891 15.69224609 16.07925781 16.44699219 16.08789062 17.22460938 C16.09652441 19.14994313 16.05224333 21.07535581 16 23 C15.67 23.33 15.34 23.66 15 24 C14.76712992 25.68183948 14.58735834 27.3712416 14.4375 29.0625 C14.35371094 29.98160156 14.26992188 30.90070313 14.18359375 31.84765625 C14.09271484 32.91306641 14.09271484 32.91306641 14 34 C13.34 34 12.68 34 12 34 C11.97289877 36.5625718 11.95311229 39.12485365 11.9375 41.6875 C11.92912109 42.40873047 11.92074219 43.12996094 11.91210938 43.87304688 C11.89456368 47.71555382 12.06475779 51.26639526 13 55 C12.01 55 11.02 55 10 55 C8.24421034 49.73263101 7.8180183 45.55044172 8 40 C8 38.68 8 37.36 8 36 C7.34 38.31 6.68 40.62 6 43 C5.34 43 4.68 43 4 43 C3.8453125 44.051875 3.8453125 44.051875 3.6875 45.125 C3 48 3 48 1.4375 50.875 C-0.2234426 54.48574477 -0.23573673 57.07105458 0 61 C-0.66 61 -1.32 61 -2 61 C-2 60.34 -2 59.68 -2 59 C-2.66 59 -3.32 59 -4 59 C-4 59.66 -4 60.32 -4 61 C-4.66 61 -5.32 61 -6 61 C-5.67 59.68 -5.34 58.36 -5 57 C-4.34 57 -3.68 57 -3 57 C-2.82984375 56.45472656 -2.6596875 55.90945313 -2.484375 55.34765625 C-1.17090279 51.26052199 0.25090511 47.33208976 2.0625 43.4375 C6.94697676 32.56439274 7.78461271 20.41622187 4 9 C2.77396358 5.94426802 1.44143268 2.95983506 0 0 Z " fill="#265CA3" transform="translate(318,201)"/>
<path d="M0 0 C0.66 0 1.32 0 2 0 C2.33 37.95 2.66 75.9 3 115 C3.33 115 3.66 115 4 115 C4.13277344 115.67546875 4.26554687 116.3509375 4.40234375 117.046875 C4.66724609 118.38492188 4.66724609 118.38492188 4.9375 119.75 C5.11152344 120.63171875 5.28554687 121.5134375 5.46484375 122.421875 C5.92368488 124.63235053 6.43336074 126.81512068 7 129 C9.31 129.66 11.62 130.32 14 131 C14 132.32 14 133.64 14 135 C10.38032734 134.43517196 8.82755167 133.16975146 6.4375 130.4375 C5.85871094 129.79683594 5.27992187 129.15617188 4.68359375 128.49609375 C-0.14618105 121.33547636 -0.42468435 114.63972032 -0.34057617 106.25976562 C-0.34123329 104.53163132 -0.34123329 104.53163132 -0.34190369 102.76858521 C-0.33982266 98.98096452 -0.3165232 95.19379285 -0.29296875 91.40625 C-0.28737038 88.77209719 -0.28310142 86.13794124 -0.28010559 83.50378418 C-0.27080832 77.29201331 -0.2462263 71.08040221 -0.21605712 64.86870146 C-0.18244054 57.79249423 -0.16600893 50.71627908 -0.15097082 43.64001179 C-0.11967441 29.09325905 -0.06695942 14.54663177 0 0 Z " fill="#3453A4" transform="translate(114,183)"/>
<path d="M0 0 C0.99 0.495 0.99 0.495 2 1 C2.00146656 1.61015174 2.00293312 2.22030348 2.00444412 2.84894466 C2.04156191 17.72338406 2.1006423 32.59761583 2.18390274 47.47186184 C2.22364293 54.66508272 2.25606078 61.85819499 2.27099609 69.05151367 C2.28403881 75.32421688 2.31106971 81.59668062 2.35461307 87.86924893 C2.37716974 91.18789589 2.39082721 94.50618536 2.39188385 97.82491875 C2.39425456 101.53785808 2.42134565 105.24986779 2.45410156 108.96264648 C2.4490712 110.05237762 2.44404083 111.14210876 2.43885803 112.26486206 C2.52154973 118.33960448 3.32452413 122.84421887 6.14419174 128.25912571 C7 130 7 130 7 132 C4.64611161 131.05653506 3.28347898 130.47597415 1.96509838 128.26235294 C-0.15900217 121.74357749 -0.40752643 115.69311828 -0.34057617 108.87084961 C-0.34101425 107.68935333 -0.34145233 106.50785706 -0.34190369 105.29055786 C-0.33982469 101.41098119 -0.31653486 97.53184432 -0.29296875 93.65234375 C-0.28569537 90.95235944 -0.28295333 88.25237555 -0.28010559 85.55238342 C-0.270813 79.18835893 -0.2462374 72.82449062 -0.21605712 66.46053463 C-0.18242585 59.21018369 -0.16600526 51.95982495 -0.15097082 44.70941532 C-0.11968501 29.80619014 -0.06697933 14.90311075 0 0 Z " fill="#D0E4F0" transform="translate(112,180)"/>
<path d="M0 0 C0.99 0.66 1.98 1.32 3 2 C2.34964342 2.39678042 1.69928684 2.79356085 1.02922249 3.20236492 C-1.18016421 4.80584586 -1.18016421 4.80584586 -1.48660469 7.17961597 C-1.48031988 8.03185592 -1.47403507 8.88409586 -1.46755981 9.76216125 C-1.47016815 10.74207031 -1.47277649 11.72197937 -1.47546387 12.73158264 C-1.45794067 13.80540695 -1.44041748 14.87923126 -1.42236328 15.9855957 C-1.4197348 17.11756378 -1.41710632 18.24953186 -1.41439819 19.415802 C-1.40138333 23.16946443 -1.36049853 26.92231985 -1.3203125 30.67578125 C-1.30777459 33.28027972 -1.29729345 35.88478883 -1.28878784 38.48930359 C-1.26601877 44.65521024 -1.22456978 50.82082535 -1.17499244 56.98656958 C-1.08117978 68.67168361 -1.01535522 80.3568772 -0.9659996 92.04225731 C-0.94555 95.88119597 -0.91144293 99.7198442 -0.87600708 103.55867004 C-0.86234844 105.91451761 -0.84913103 108.2703678 -0.83642578 110.6262207 C-0.82295105 111.69397232 -0.80947632 112.76172394 -0.79559326 113.86183167 C-0.779886 118.98323301 -0.92905808 123.21036015 -3 128 C-3.8656619 125.00897539 -4.12188743 122.35861372 -4.11352539 119.24925232 C-4.1134549 118.29728973 -4.1133844 117.34532715 -4.11331177 116.36451721 C-4.10814545 115.326978 -4.10297913 114.28943878 -4.09765625 113.22045898 C-4.09619598 112.12254028 -4.09473572 111.02462158 -4.0932312 109.89343262 C-4.08942547 107.50949593 -4.08330918 105.12556208 -4.07516479 102.74163628 C-4.06242033 98.97253225 -4.0558906 95.20346333 -4.05102539 91.43434143 C-4.03958761 83.43537757 -4.02039144 75.4364448 -4 67.4375 C-3.97637398 58.16681671 -3.95603395 48.8961523 -3.94406128 39.62544441 C-3.93756027 35.90558298 -3.92505268 32.18577183 -3.91235352 28.46592712 C-3.9087222 26.1940007 -3.90537031 23.9220738 -3.90234375 21.65014648 C-3.89717743 20.61058304 -3.89201111 19.57101959 -3.88668823 18.49995422 C-3.88661774 17.55081146 -3.88654724 16.6016687 -3.88647461 15.62376404 C-3.884254 14.79842383 -3.88203339 13.97308363 -3.87974548 13.12273312 C-3.91775255 10.80996914 -3.91775255 10.80996914 -5 8 C-4.5625 5.8125 -4.5625 5.8125 -4 4 C-3.34 4 -2.68 4 -2 4 C-2 3.34 -2 2.68 -2 2 C-1.34 2 -0.68 2 0 2 C0 1.34 0 0.68 0 0 Z " fill="#587BB0" transform="translate(357,176)"/>
<path d="M0 0 C0 0.99 0 1.98 0 3 C2.97 2.505 2.97 2.505 6 2 C6 1.34 6 0.68 6 0 C6.99 0 7.98 0 9 0 C9.020625 0.99 9.04125 1.98 9.0625 3 C9.65686696 7.56919599 12.35291617 10.03311486 15.50390625 13.203125 C17 15 17 15 17 18 C16.45730469 17.44570312 15.91460937 16.89140625 15.35546875 16.3203125 C14.64003906 15.59585938 13.92460937 14.87140625 13.1875 14.125 C12.47980469 13.40570313 11.77210938 12.68640625 11.04296875 11.9453125 C8.95600806 9.84641063 8.95600806 9.84641063 6 8 C6 7.34 6 6.68 6 6 C5.030625 5.7525 4.06125 5.505 3.0625 5.25 C0.03817055 4.39902471 -2.71606831 3.26422664 -5.5625 1.9375 C-14.89578245 -2.275005 -25.79444741 -2.3212054 -35.4765625 0.9375 C-39.36337616 2.57405312 -43.00461498 4.58540319 -46.65234375 6.6953125 C-49 8 -49 8 -52 9 C-52.33 9.99 -52.66 10.98 -53 12 C-54.4375 13.6875 -54.4375 13.6875 -56 15 C-56.66 15 -57.32 15 -58 15 C-58.2784375 15.72058594 -58.556875 16.44117188 -58.84375 17.18359375 C-59.9519821 19.88303748 -61.18094016 22.46057403 -62.5 25.0625 C-62.9228125 25.89910156 -63.345625 26.73570312 -63.78125 27.59765625 C-64.38453125 28.78681641 -64.38453125 28.78681641 -65 30 C-65.66756863 31.33288197 -66.3345659 32.66605109 -67 34 C-66.88490339 32.58249437 -66.75746342 31.16598831 -66.625 29.75 C-66.55539063 28.96109375 -66.48578125 28.1721875 -66.4140625 27.359375 C-65.98193785 24.89707981 -65.15389001 23.19960284 -64 21 C-63.61709538 19.00889599 -63.27395385 17.00899487 -63 15 C-62.34 15 -61.68 15 -61 15 C-60.67 14.01 -60.34 13.02 -60 12 C-59.34 12.33 -58.68 12.66 -58 13 C-57.01 11.02 -56.02 9.04 -55 7 C-54.01 7 -53.02 7 -52 7 C-52 6.34 -52 5.68 -52 5 C-50.68 5 -49.36 5 -48 5 C-48.33 3.35 -48.66 1.7 -49 0 C-48.67 0.66 -48.34 1.32 -48 2 C-47.38253906 1.72285156 -46.76507813 1.44570312 -46.12890625 1.16015625 C-45.28199219 0.79792969 -44.43507812 0.43570313 -43.5625 0.0625 C-42.73878906 -0.29714844 -41.91507813 -0.65679687 -41.06640625 -1.02734375 C-28.97077418 -4.86404743 -11.65853925 -5.03505037 0 0 Z " fill="#446278" transform="translate(212,180)"/>
<path d="M0 0 C5.47275217 6.02002738 6.00158826 13.86529255 5.99525452 21.63046265 C5.99662918 22.93449036 5.99800385 24.23851807 5.99942017 25.58206177 C5.99588168 27.01483178 5.99224688 28.44760155 5.98852539 29.88037109 C5.98824313 31.39847817 5.98840201 32.91658538 5.9889679 34.43469238 C5.98925435 38.54578823 5.98338215 42.6568548 5.97639394 46.76794386 C5.97013513 51.06808288 5.9695546 55.3682226 5.96836853 59.66836548 C5.96526267 67.80676141 5.95705932 75.94514388 5.94701904 84.08353388 C5.93583478 93.35072581 5.93034162 102.61791839 5.92532361 111.88511539 C5.91487609 130.94425122 5.89729106 150.00337453 5.875 169.0625 C4.885 169.3925 3.895 169.7225 2.875 170.0625 C3.11653305 168.76283798 3.11653305 168.76283798 3.36294556 167.43692017 C4.22337869 161.35357766 4.04807954 155.20266698 4.06787109 149.07177734 C4.07578386 147.65343023 4.08405351 146.23508507 4.09265137 144.81674194 C4.11873442 140.17732631 4.13416463 135.53790228 4.1484375 130.8984375 C4.15380271 129.29428732 4.15918022 127.69013719 4.16456985 126.08598709 C4.1861779 119.40834265 4.20491094 112.7307005 4.21619225 106.05303001 C4.2324118 96.51894456 4.26556476 86.98526775 4.32259309 77.45133626 C4.36142678 70.72748083 4.3808407 64.00373409 4.38611281 57.27976954 C4.38974775 53.27353933 4.40156932 49.26774634 4.43421555 45.26163864 C4.46453448 41.48737801 4.47052466 37.71381375 4.45883179 33.93945694 C4.45850975 31.9154223 4.48281491 29.89142907 4.50820923 27.86755371 C4.44906343 19.0778145 3.42348595 8.61098595 -3.125 2.0625 C-4.25312303 3.16347568 -5.37737811 4.26841556 -6.5 5.375 C-7.12648438 5.98988281 -7.75296875 6.60476562 -8.3984375 7.23828125 C-10.30586607 9.15062528 -10.30586607 9.15062528 -12.125 12.0625 C-12.785 12.0625 -13.445 12.0625 -14.125 12.0625 C-14.455 12.7225 -14.785 13.3825 -15.125 14.0625 C-14.795 12.4125 -14.465 10.7625 -14.125 9.0625 C-13.135 8.7325 -12.145 8.4025 -11.125 8.0625 C-11.125 7.0725 -11.125 6.0825 -11.125 5.0625 C-10.465 5.0625 -9.805 5.0625 -9.125 5.0625 C-8.898125 4.44375 -8.67125 3.825 -8.4375 3.1875 C-7.125 1.0625 -7.125 1.0625 -4.75 -0.375 C-2.125 -0.9375 -2.125 -0.9375 0 0 Z " fill="#345897" transform="translate(387.125,150.9375)"/>
<path d="M0 0 C0.66 0.33 1.32 0.66 2 1 C1.01 2.485 1.01 2.485 0 4 C-0.66 4 -1.32 4 -2 4 C-2 5.32 -2 6.64 -2 8 C-1.34 8 -0.68 8 0 8 C0 7.34 0 6.68 0 6 C0.66 6 1.32 6 2 6 C2 6.66 2 7.32 2 8 C2.66 8 3.32 8 4 8 C3.30871722 14.22154506 1.76378916 18.54704587 -2.9296875 22.828125 C-6.07292114 24.60731385 -8.45788406 24.15892553 -11.88671875 23.3671875 C-14.24246489 22.95787116 -15.74367095 23.27675231 -18 24 C-14.39190497 19.24387473 -9.52563577 18.39195405 -4 17 C-4 14.69 -4 12.38 -4 10 C-4.9075 10.78375 -5.815 11.5675 -6.75 12.375 C-8.51665996 13.85618095 -9.98108247 14.99082787 -12.0625 16 C-14.29610844 17.0145057 -14.29610844 17.0145057 -16.5 19.6875 C-17.325 20.450625 -18.15 21.21375 -19 22 C-21.15625 21.64453125 -21.15625 21.64453125 -23 21 C-22.40832031 20.55269531 -21.81664062 20.10539062 -21.20703125 19.64453125 C-16.85360266 16.31376778 -12.77870285 12.98863078 -9 9 C-3.8028169 3.54929577 -3.8028169 3.54929577 0 2 C0 1.34 0 0.68 0 0 Z " fill="#245CA4" transform="translate(284,294)"/>
<path d="M0 0 C0.66 0.33 1.32 0.66 2 1 C-0.11471417 4.27780696 -1.26445885 5.15649071 -5 6 C-5.66 6.99 -6.32 7.98 -7 9 C-7.680625 9.165 -8.36125 9.33 -9.0625 9.5 C-9.701875 9.665 -10.34125 9.83 -11 10 C-11.33 10.99 -11.66 11.98 -12 13 C-14.31 13.33 -16.62 13.66 -19 14 C-20.01111093 17.04913228 -20.01111093 17.04913228 -19 20 C-19.66 20 -20.32 20 -21 20 C-21 20.66 -21 21.32 -21 22 C-23.97 21.67 -26.94 21.34 -30 21 C-30.33 22.32 -30.66 23.64 -31 25 C-33 26.125 -33 26.125 -35 27 C-35.33 27.66 -35.66 28.32 -36 29 C-38.875 29.1875 -38.875 29.1875 -42 29 C-42.66 28.01 -43.32 27.02 -44 26 C-43.37770508 25.63874023 -42.75541016 25.27748047 -42.11425781 24.90527344 C-39.158653 23.18831108 -36.20426641 21.46926422 -33.25 19.75 C-32.17282715 19.12407959 -31.0956543 18.49815918 -29.98583984 17.85327148 C-24.63575884 14.73625751 -19.30535886 11.59466819 -14.0234375 8.36328125 C-12.65396973 7.52748535 -12.65396973 7.52748535 -11.25683594 6.67480469 C-9.52410034 5.61330322 -7.79544895 4.54510124 -6.07128906 3.46972656 C-4.91064941 2.75961426 -4.91064941 2.75961426 -3.7265625 2.03515625 C-3.05189941 1.6162915 -2.37723633 1.19742676 -1.68212891 0.76586914 C-1.12702637 0.51313232 -0.57192383 0.26039551 0 0 Z " fill="#285AAA" transform="translate(299,385)"/>
<path d="M0 0 C-3.01031744 0.93423645 -3.86650268 1.04449911 -7 0 C-7 -0.66 -7 -1.32 -7 -2 C-7.7425 -1.95875 -8.485 -1.9175 -9.25 -1.875 C-12 -2 -12 -2 -13.86035156 -2.99560547 C-16.41102089 -4.19294157 -18.17692855 -4.22954965 -20.984375 -4.1953125 C-22.38623047 -4.18564453 -22.38623047 -4.18564453 -23.81640625 -4.17578125 C-25.26853516 -4.15064453 -25.26853516 -4.15064453 -26.75 -4.125 C-27.73355469 -4.11597656 -28.71710938 -4.10695312 -29.73046875 -4.09765625 C-32.15389407 -4.07412785 -34.57682222 -4.04125368 -37 -4 C-37 -3.34 -37 -2.68 -37 -2 C-39.31 -1.67 -41.62 -1.34 -44 -1 C-44 0.32 -44 1.64 -44 3 C-45.2684375 3.12375 -45.2684375 3.12375 -46.5625 3.25 C-51.88765669 4.41185237 -55.76186164 6.24264233 -58.9375 10.75 C-59.288125 11.4925 -59.63875 12.235 -60 13 C-61.32 12.67 -62.64 12.34 -64 12 C-48.02705655 -8.59669023 -22.39303733 -11.6818685 0 0 Z " fill="#CDBF6C" transform="translate(304,185)"/>
<path d="M0 0 C0.12375 0.639375 0.2475 1.27875 0.375 1.9375 C0.58125 2.618125 0.7875 3.29875 1 4 C1.66 4.33 2.32 4.66 3 5 C2.38722388 7.96175123 1.74627478 9.38058783 0 12 C-0.99 11.67 -1.98 11.34 -3 11 C-3.144375 11.639375 -3.28875 12.27875 -3.4375 12.9375 C-4 15 -4 15 -5 16 C-5.23287008 17.68183948 -5.41264166 19.3712416 -5.5625 21.0625 C-5.68818359 22.44115234 -5.68818359 22.44115234 -5.81640625 23.84765625 C-5.87699219 24.55792969 -5.93757812 25.26820313 -6 26 C-5.34 26.33 -4.68 26.66 -4 27 C-4.66 32.28 -5.32 37.56 -6 43 C-10.54883732 33.90232535 -10.11181896 23.79845303 -7.3125 14.125 C-5.51456069 8.8600666 -3.20212838 4.53634854 0 0 Z " fill="#E2C856" transform="translate(153,197)"/>
<path d="M0 0 C2.31 0.33 4.62 0.66 7 1 C4.64891006 3.59829519 2.19194803 5.16522372 -0.8671875 6.85546875 C-1.82987549 7.39212158 -2.79256348 7.92877441 -3.78442383 8.48168945 C-5.31425903 9.32606567 -5.31425903 9.32606567 -6.875 10.1875 C-14.63547517 14.51096024 -22.28960858 18.91474262 -29.76953125 23.70703125 C-32 25 -32 25 -34 25 C-34.66 23.68 -35.32 22.36 -36 21 C-35.4225 21.226875 -34.845 21.45375 -34.25 21.6875 C-31.89006205 22.27095593 -31.89006205 22.27095593 -29.875 20.5625 C-28.946875 19.7890625 -28.946875 19.7890625 -28 19 C-27.34 19 -26.68 19 -26 19 C-26 18.34 -26 17.68 -26 17 C-24.35 17 -22.7 17 -21 17 C-20.95875 16.38125 -20.9175 15.7625 -20.875 15.125 C-20.441875 14.073125 -20.441875 14.073125 -20 13 C-17.125 11.875 -17.125 11.875 -14 11 C-13.01 10.34 -12.02 9.68 -11 9 C-10.01 9 -9.02 9 -8 9 C-8.33 8.01 -8.66 7.02 -9 6 C-8.01 5.67 -7.02 5.34 -6 5 C-6 4.34 -6 3.68 -6 3 C-4.68 3 -3.36 3 -2 3 C-1.34 2.01 -0.68 1.02 0 0 Z " fill="#2A5BA7" transform="translate(293,342)"/>
<path d="M0 0 C-1.32 0.33 -2.64 0.66 -4 1 C-4 1.99 -4 2.98 -4 4 C-5.6796875 5.38671875 -5.6796875 5.38671875 -7.875 6.6875 C-8.59429687 7.12449219 -9.31359375 7.56148437 -10.0546875 8.01171875 C-12 9 -12 9 -14 9 C-14.33 9.99 -14.66 10.98 -15 12 C-16.4375 13.6875 -16.4375 13.6875 -18 15 C-18.66 15 -19.32 15 -20 15 C-20.2784375 15.72058594 -20.556875 16.44117188 -20.84375 17.18359375 C-21.9519821 19.88303748 -23.18094016 22.46057403 -24.5 25.0625 C-24.9228125 25.89910156 -25.345625 26.73570312 -25.78125 27.59765625 C-26.38453125 28.78681641 -26.38453125 28.78681641 -27 30 C-27.66756863 31.33288197 -28.3345659 32.66605109 -29 34 C-28.88490339 32.58249437 -28.75746342 31.16598831 -28.625 29.75 C-28.55539063 28.96109375 -28.48578125 28.1721875 -28.4140625 27.359375 C-27.98193785 24.89707981 -27.15389001 23.19960284 -26 21 C-25.61709538 19.00889599 -25.27395385 17.00899487 -25 15 C-24.34 15 -23.68 15 -23 15 C-22.67 14.01 -22.34 13.02 -22 12 C-21.34 12.33 -20.68 12.66 -20 13 C-19.01 11.02 -18.02 9.04 -17 7 C-16.01 7 -15.02 7 -14 7 C-14 6.34 -14 5.68 -14 5 C-12.68 5 -11.36 5 -10 5 C-10.33 3.35 -10.66 1.7 -11 0 C-10.67 0.66 -10.34 1.32 -10 2 C-8.906875 1.484375 -7.81375 0.96875 -6.6875 0.4375 C-3 -1 -3 -1 0 0 Z " fill="#395F89" transform="translate(174,180)"/>
<path d="M0 0 C5.26371362 -0.50130606 7.9090934 0.68831371 12 4 C12 4.66 12 5.32 12 6 C12.99 6.061875 13.98 6.12375 15 6.1875 C19.65888273 6.83403883 23.33476628 9.13039018 27 12 C27.33 12.66 27.66 13.32 28 14 C29.84971696 15.05021103 29.84971696 15.05021103 32 16 C35.88888889 17.77777778 35.88888889 17.77777778 37 20 C39.02463255 20.65213292 39.02463255 20.65213292 41 21 C41 21.66 41 22.32 41 23 C36.50906015 22.43863252 33.25458684 20.56143054 29.5 18.1875 C28.18758483 17.37795557 26.87368922 16.57080799 25.55859375 15.765625 C24.84171387 15.32669922 24.12483398 14.88777344 23.38623047 14.43554688 C18.82390996 11.69087278 14.190168 9.06995647 9.5625 6.4375 C8.62019531 5.90084717 7.67789062 5.36419434 6.70703125 4.8112793 C4.47213126 3.53947739 2.23649461 2.26899499 0 1 C0 0.67 0 0.34 0 0 Z " fill="#38609D" transform="translate(316,107)"/>
<path d="M0 0 C-1 3 -1 3 -4 4.5625 C-4.99 5.036875 -5.98 5.51125 -7 6 C-7.33 6.66 -7.66 7.32 -8 8 C-7.34 8.33 -6.68 8.66 -6 9 C-9.37097383 10.49821059 -11.20442119 11 -15 11 C-17.56884536 12.83488954 -19.77010817 14.77010817 -22 17 C-24.32173505 17.57510868 -26.64438348 17.9509944 -29.00390625 18.33984375 C-29.66261719 18.55769531 -30.32132812 18.77554687 -31 19 C-31.33 19.99 -31.66 20.98 -32 22 C-32.99 22 -33.98 22 -35 22 C-35.33 22.66 -35.66 23.32 -36 24 C-37.32 23.34 -38.64 22.68 -40 22 C-39.09121094 21.52691406 -38.18242187 21.05382812 -37.24609375 20.56640625 C-26.27380533 14.80989613 -15.63006527 8.61018611 -5.1875 1.9375 C-2 0 -2 0 0 0 Z " fill="#E2F1F9" transform="translate(293,348)"/>
<path d="M0 0 C0 0.66 0 1.32 0 2 C1.65 2 3.3 2 5 2 C5 2.66 5 3.32 5 4 C6.32 4 7.64 4 9 4 C9 4.66 9 5.32 9 6 C9.99 6 10.98 6 12 6 C12 6.99 12 7.98 12 9 C13.32 9 14.64 9 16 9 C15.67 10.32 15.34 11.64 15 13 C13.85050412 12.21366078 12.70551011 11.42073742 11.5625 10.625 C10.60537109 9.96371094 10.60537109 9.96371094 9.62890625 9.2890625 C8 8 8 8 7 6 C4.94929147 5.07022961 2.85788664 4.22913904 0.75 3.4375 C-0.38953125 3.00308594 -1.5290625 2.56867188 -2.703125 2.12109375 C-16.05856473 -2.42038872 -29.98837312 0.23859178 -42.48828125 6.23046875 C-42.98714844 6.48441406 -43.48601562 6.73835937 -44 7 C-43.88671875 5.13671875 -43.88671875 5.13671875 -43 3 C-40.26953125 1.76953125 -40.26953125 1.76953125 -36.8125 0.8125 C-35.68457031 0.48894531 -34.55664062 0.16539062 -33.39453125 -0.16796875 C-22.26616382 -2.89563534 -11.10312813 -2.86532339 0 0 Z " fill="#4C6276" transform="translate(296,179)"/>
<path d="M0 0 C0 3 0 3 -2 5.4375 C-4.41018057 7.98377704 -4.41018057 7.98377704 -4 12 C-5.32 12 -6.64 12 -8 12 C-8.33 13.65 -8.66 15.3 -9 17 C-9.99 17.33 -10.98 17.66 -12 18 C-12 17.34 -12 16.68 -12 16 C-12.66 16 -13.32 16 -14 16 C-14.33 17.32 -14.66 18.64 -15 20 C-15.33 19.67 -15.66 19.34 -16 19 C-17.66608987 18.95615553 -19.33380554 18.9603287 -21 19 C-21.99 19 -22.98 19 -24 19 C-20.25 16 -20.25 16 -18 16 C-18 15.34 -18 14.68 -18 14 C-15.78059843 12.29687633 -13.55963493 10.69683488 -11.25 9.125 C-7.16901992 6.32969454 -3.37284415 3.66243178 0 0 Z " fill="#356095" transform="translate(260,316)"/>
<path d="M0 0 C-11.33333333 6.66666667 -22.66666667 13.33333333 -34 20 C-34.66 19.34 -35.32 18.68 -36 18 C-34.875 15.5625 -34.875 15.5625 -33 13 C-29.9375 12.3125 -29.9375 12.3125 -27 12 C-26.34 11.34 -25.68 10.68 -25 10 C-24.01 10 -23.02 10 -22 10 C-22 9.34 -22 8.68 -22 8 C-20.35 8 -18.7 8 -17 8 C-17 7.34 -17 6.68 -17 6 C-15.71349294 5.30289269 -14.42059335 4.61757124 -13.125 3.9375 C-12.40570313 3.55464844 -11.68640625 3.17179687 -10.9453125 2.77734375 C-9.98238281 2.39255859 -9.98238281 2.39255859 -9 2 C-8.34 2.33 -7.68 2.66 -7 3 C-7 2.34 -7 1.68 -7 1 C-3.375 -1.125 -3.375 -1.125 0 0 Z " fill="#385F9F" transform="translate(182,91)"/>
<path d="M0 0 C0 1.32 0 2.64 0 4 C-2.97 4.99 -5.94 5.98 -9 7 C-9 7.66 -9 8.32 -9 9 C-9.77085937 9.17015625 -10.54171875 9.3403125 -11.3359375 9.515625 C-12.84027344 9.87914063 -12.84027344 9.87914063 -14.375 10.25 C-15.37273437 10.48203125 -16.37046875 10.7140625 -17.3984375 10.953125 C-20.52429657 12.2109782 -20.63303946 13.07753264 -22 16 C-24.67790463 16.83886169 -27.1737941 16.81766414 -30 17 C-27.46902324 14.14610365 -24.62237699 12.50095208 -21.30859375 10.64453125 C-20.19935547 10.02255859 -19.09011719 9.40058594 -17.94726562 8.75976562 C-17.37145752 8.44048096 -16.79564941 8.12119629 -16.20239258 7.79223633 C-14.43627241 6.81181853 -12.67594532 5.82155671 -10.91601562 4.83007812 C-2.25813836 0 -2.25813836 0 0 0 Z " fill="#325D9E" transform="translate(224,109)"/>
<path d="M0 0 C2.64 0 5.28 0 8 0 C7.34 1.32 6.68 2.64 6 4 C5.34 4 4.68 4 4 4 C4 4.66 4 5.32 4 6 C0.97250324 9.37349639 -2.01978119 11.83930979 -6 14 C-6 13.34 -6 12.68 -6 12 C-6.66 12 -7.32 12 -8 12 C-8 11.01 -8 10.02 -8 9 C-7.34 9 -6.68 9 -6 9 C-6 8.01 -6 7.02 -6 6 C-5.38125 5.7525 -4.7625 5.505 -4.125 5.25 C-1.64931313 3.79371361 -1.04874998 2.62187494 0 0 Z " fill="#FACF3F" transform="translate(280,290)"/>
<path d="M0 0 C2.4375 0.8125 2.4375 0.8125 5 2 C5.33 2.99 5.66 3.98 6 5 C7.92811046 5.9547877 7.92811046 5.9547877 10.25 6.5625 C11.06210937 6.81386719 11.87421875 7.06523438 12.7109375 7.32421875 C13.46632813 7.54722656 14.22171875 7.77023438 15 8 C18.52462075 9.07271066 19.64360747 9.52480996 21.875 12.5 C22.24625 13.325 22.6175 14.15 23 15 C22.67 15.66 22.34 16.32 22 17 C19.47899546 15.58363731 16.95819247 14.16691788 14.4375 12.75 C13.38079102 12.15638672 13.38079102 12.15638672 12.30273438 11.55078125 C7.85800334 9.05190021 3.42432976 6.53483282 -1 4 C-0.67 2.68 -0.34 1.36 0 0 Z " fill="#375EA1" transform="translate(291,89)"/>
<path d="M0 0 C5.73715288 6.31086817 5.52024502 13.92760133 5.875 22.0625 C5.545 22.0625 5.215 22.0625 4.875 22.0625 C4.62105469 21.12148437 4.36710937 20.18046875 4.10546875 19.2109375 C3.58919922 17.34308594 3.58919922 17.34308594 3.0625 15.4375 C2.55783203 13.59285156 2.55783203 13.59285156 2.04296875 11.7109375 C0.94064671 8.26756364 -0.41777707 5.24214156 -2.125 2.0625 C-5.91234321 5.17538483 -9.22042033 8.08781203 -12.125 12.0625 C-12.785 12.0625 -13.445 12.0625 -14.125 12.0625 C-14.455 12.7225 -14.785 13.3825 -15.125 14.0625 C-14.795 12.4125 -14.465 10.7625 -14.125 9.0625 C-13.135 8.7325 -12.145 8.4025 -11.125 8.0625 C-11.125 7.0725 -11.125 6.0825 -11.125 5.0625 C-10.465 5.0625 -9.805 5.0625 -9.125 5.0625 C-8.898125 4.44375 -8.67125 3.825 -8.4375 3.1875 C-7.125 1.0625 -7.125 1.0625 -4.75 -0.375 C-2.125 -0.9375 -2.125 -0.9375 0 0 Z " fill="#39609C" transform="translate(387.125,150.9375)"/>
<path d="M0 0 C4.20223747 4.20223747 4.18951797 11.36599843 4.4375 17.0625 C4.32712987 24.85279165 2.53458017 35.84459193 -2.66796875 41.9609375 C-3.10753906 42.30382812 -3.54710937 42.64671875 -4 43 C-4 41.02 -4 39.04 -4 37 C-3.34 37 -2.68 37 -2 37 C-1.87625 36.34 -1.7525 35.68 -1.625 35 C-1 32 -1 32 0 28.6875 C1.73712982 21.98529016 1.6825205 14.8842923 2 8 C1.34 8 0.68 8 0 8 C0 5.36 0 2.72 0 0 Z " fill="#D6C968" transform="translate(321,208)"/>
<path d="M0 0 C4.27714999 1.29862557 7.9408313 2.94049558 11.80078125 5.1875 C12.85974609 5.80367188 13.91871094 6.41984375 15.00976562 7.0546875 C16.09966797 7.69664062 17.18957031 8.33859375 18.3125 9 C19.97635742 9.96292969 19.97635742 9.96292969 21.67382812 10.9453125 C29.87251759 15.74503517 29.87251759 15.74503517 31 18 C28.03 17.34 25.06 16.68 22 16 C22 15.34 22 14.68 22 14 C21.46375 13.896875 20.9275 13.79375 20.375 13.6875 C17.37497956 12.81907303 14.7620465 11.44379704 12 10 C12 9.34 12 8.68 12 8 C10.68 8 9.36 8 8 8 C8 7.34 8 6.68 8 6 C7.34 6 6.68 6 6 6 C6 5.34 6 4.68 6 4 C4.02 3.34 2.04 2.68 0 2 C0 1.34 0 0.68 0 0 Z " fill="#365F9D" transform="translate(148,374)"/>
<path d="M0 0 C7.45687159 0.0177444 13.05666528 0.46140549 19.59204102 4.38012695 C20.42993164 4.83516602 21.26782227 5.29020508 22.13110352 5.7590332 C24.30200306 6.93857769 26.45203507 8.14570272 28.59204102 9.38012695 C28.59204102 9.71012695 28.59204102 10.04012695 28.59204102 10.38012695 C25.84204102 10.63012695 25.84204102 10.63012695 22.59204102 10.38012695 C20.46704102 8.50512695 20.46704102 8.50512695 18.59204102 6.38012695 C15.5329391 4.51382472 12.93771922 4.03617053 9.38891602 3.74731445 C8.40922852 3.66352539 7.42954102 3.57973633 6.42016602 3.4934082 C5.40438477 3.41477539 4.38860352 3.33614258 3.34204102 3.25512695 C2.31079102 3.16875977 1.27954102 3.08239258 0.21704102 2.9934082 C-2.32411597 2.78164512 -4.86565019 2.57749541 -7.40795898 2.38012695 C-4.93272516 -0.09510687 -3.38940667 0.07381574 0 0 Z " fill="#3D649B" transform="translate(231.407958984375,106.619873046875)"/>
<path d="M0 0 C0.33 1.32 0.66 2.64 1 4 C0.360625 4.2475 -0.27875 4.495 -0.9375 4.75 C-3.18741541 5.81562433 -3.18741541 5.81562433 -3.75 8.125 C-3.8325 8.74375 -3.915 9.3625 -4 10 C-4.99 10 -5.98 10 -7 10 C-7 10.66 -7 11.32 -7 12 C-7.639375 12.226875 -8.27875 12.45375 -8.9375 12.6875 C-9.618125 13.120625 -10.29875 13.55375 -11 14 C-11.12375 14.78375 -11.2475 15.5675 -11.375 16.375 C-12 19 -12 19 -14.8125 21.375 C-18 23 -18 23 -22 22 C-14.74 14.74 -7.48 7.48 0 0 Z " fill="#446AA9" transform="translate(354,132)"/>
<path d="M0 0 C0.66 0.33 1.32 0.66 2 1 C1.01 2.485 1.01 2.485 0 4 C-0.66 4 -1.32 4 -2 4 C-1.67 5.98 -1.34 7.96 -1 10 C-1.8353125 10.12375 -1.8353125 10.12375 -2.6875 10.25 C-5.70190759 11.2276457 -7.56738186 12.99309004 -10 15 C-10.66 15.309375 -11.32 15.61875 -12 15.9375 C-14.28316408 17.01064166 -14.28316408 17.01064166 -16.5 19.6875 C-17.325 20.450625 -18.15 21.21375 -19 22 C-21.15625 21.64453125 -21.15625 21.64453125 -23 21 C-22.40832031 20.55269531 -21.81664062 20.10539062 -21.20703125 19.64453125 C-16.85360266 16.31376778 -12.77870285 12.98863078 -9 9 C-3.8028169 3.54929577 -3.8028169 3.54929577 0 2 C0 1.34 0 0.68 0 0 Z " fill="#416387" transform="translate(284,294)"/>
<path d="M0 0 C-3.13349732 1.04449911 -3.98968256 0.93423645 -7 0 C-7 -0.66 -7 -1.32 -7 -2 C-8.423125 -1.9071875 -8.423125 -1.9071875 -9.875 -1.8125 C-13.07961423 -1.78701599 -15.44543866 -2.4487039 -18.4375 -3.5625 C-25.50631728 -5.90781302 -32.72358879 -4.74930785 -40 -4 C-27.39100962 -10.75481627 -11.82577497 -6.59514374 0 0 Z " fill="#D2C467" transform="translate(216,185)"/>
<path d="M0 0 C0.66 0 1.32 0 2 0 C3.14878332 2.10260341 4.29411192 4.20696539 5.4375 6.3125 C5.76298828 6.90740234 6.08847656 7.50230469 6.42382812 8.11523438 C7.83737384 10.72373626 9.05948633 13.17845899 10 16 C10.969375 16.2475 11.93875 16.495 12.9375 16.75 C13.948125 17.1625 14.95875 17.575 16 18 C17.25 21.5625 17.25 21.5625 18 25 C18.66 25.33 19.32 25.66 20 26 C20.625 28.5625 20.625 28.5625 21 31 C12.01316369 22.30151138 4.89336482 12.5372016 0 1 C0 0.67 0 0.34 0 0 Z " fill="#D6CC70" transform="translate(151,250)"/>
<path d="M0 0 C6.67376597 3.26878333 12.05148349 7.55903482 15.10546875 14.51953125 C15.82609105 16.66786535 16.46498707 18.79880393 17 21 C15.35 21 13.7 21 12 21 C12 19.68 12 18.36 12 17 C11.34 17.33 10.68 17.66 10 18 C7 11.375 7 11.375 7 8 C6.34 7.67 5.68 7.34 5 7 C5.33 6.34 5.66 5.68 6 5 C5.38125 4.690625 4.7625 4.38125 4.125 4.0625 C2.75 3.375 1.375 2.6875 0 2 C0 1.34 0 0.68 0 0 Z " fill="#E7CD5A" transform="translate(304,187)"/>
<path d="M0 0 C-2.81161961 3.98312778 -5.93006306 6.56136131 -9.828125 9.375 C-13.39574938 12.04430169 -16.68835801 15.02304523 -20 18 C-20.33 16.68 -20.66 15.36 -21 14 C-20.34 14 -19.68 14 -19 14 C-19 13.34 -19 12.68 -19 12 C-17.68 12 -16.36 12 -15 12 C-15 10.35 -15 8.7 -15 7 C-14.21625 6.7525 -13.4325 6.505 -12.625 6.25 C-9.61694992 4.8175952 -9.24509643 3.9690761 -8 1 C-5.29120665 -0.35439668 -2.99066732 -0.06501451 0 0 Z " fill="#E8CD52" transform="translate(271,307)"/>
<path d="M0 0 C0.66 0.33 1.32 0.66 2 1 C-0.11471417 4.27780696 -1.26445885 5.15649071 -5 6 C-5.99 7.485 -5.99 7.485 -7 9 C-7.680625 9.165 -8.36125 9.33 -9.0625 9.5 C-9.701875 9.665 -10.34125 9.83 -11 10 C-11.33 10.99 -11.66 11.98 -12 13 C-13.11375 13.12375 -14.2275 13.2475 -15.375 13.375 C-19.03103677 13.6465813 -19.03103677 13.6465813 -21 16 C-23.125 15.625 -23.125 15.625 -25 15 C-21.48243291 12.83519739 -17.95865643 10.68093973 -14.42871094 8.53637695 C-13.22804945 7.80489653 -12.02914387 7.07052597 -10.83203125 6.33325195 C-9.11398958 5.27583144 -7.38911817 4.22953268 -5.6640625 3.18359375 C-4.62717285 2.54993896 -3.5902832 1.91628418 -2.52197266 1.26342773 C-1.68972168 0.84649658 -0.8574707 0.42956543 0 0 Z " fill="#3F639E" transform="translate(299,385)"/>
<path d="M0 0 C0.33 0 0.66 0 1 0 C0.78964136 9.67649764 0.78964136 9.67649764 -2.4375 13.625 C-5 16 -5 16 -7 16 C-7 14.68 -7 13.36 -7 12 C-7.66 11.67 -8.32 11.34 -9 11 C-8.51789063 10.45730469 -8.03578125 9.91460937 -7.5390625 9.35546875 C-6.90742188 8.64003906 -6.27578125 7.92460937 -5.625 7.1875 C-4.68527344 6.12595703 -4.68527344 6.12595703 -3.7265625 5.04296875 C-1.859401 2.91196181 -1.859401 2.91196181 0 0 Z " fill="#1A60A3" transform="translate(304,272)"/>
<path d="M0 0 C0.71736328 0.00193359 1.43472656 0.00386719 2.17382812 0.00585938 C6.97430917 0.04510036 11.58205992 0.33659332 16.3125 1.125 C16.3125 1.785 16.3125 2.445 16.3125 3.125 C20.7675 4.115 20.7675 4.115 25.3125 5.125 C24.3225 5.785 23.3325 6.445 22.3125 7.125 C20.41015625 6.69921875 20.41015625 6.69921875 18.375 5.8125 C14.08269551 3.9847557 10.53305716 2.98695474 5.8359375 3.09765625 C5.000625 3.10990234 4.1653125 3.12214844 3.3046875 3.13476562 C1.55200382 3.17008089 -0.20060754 3.20917718 -1.953125 3.25195312 C-3.20222656 3.26838867 -3.20222656 3.26838867 -4.4765625 3.28515625 C-5.61665771 3.31041382 -5.61665771 3.31041382 -6.77978516 3.33618164 C-8.6875 3.125 -8.6875 3.125 -10.6875 1.125 C-7.07311025 -0.07979658 -3.76108909 -0.02404349 0 0 Z " fill="#3B639F" transform="translate(231.6875,64.875)"/>
<path d="M0 0 C1.44098611 0.76429661 2.87766054 1.53672555 4.3125 2.3125 C5.51326172 2.95638672 5.51326172 2.95638672 6.73828125 3.61328125 C8.85469174 4.91090772 10.27870888 6.24045797 12 8 C13.97620986 9.04622875 15.9737129 10.05439935 18 11 C16.25683594 12.12451172 16.25683594 12.12451172 14 13 C11.98535156 12.30908203 11.98535156 12.30908203 9.890625 11.0078125 C9.13652344 10.55019531 8.38242187 10.09257813 7.60546875 9.62109375 C6.82816406 9.12738281 6.05085938 8.63367188 5.25 8.125 C4.06083984 7.39603516 4.06083984 7.39603516 2.84765625 6.65234375 C0.88913805 5.4489169 -1.05896138 4.23135033 -3 3 C-2.01 2.01 -1.02 1.02 0 0 Z " fill="#E1F0FA" transform="translate(261,113)"/>
<path d="M0 0 C4.875 0.875 4.875 0.875 6 2 C10.83270978 27.75093533 10.83270978 27.75093533 6 35 C6.02320313 33.87722656 6.04640625 32.75445312 6.0703125 31.59765625 C6.24468691 19.7719005 5.23593512 10.75145901 0 0 Z " fill="#455F78" transform="translate(318,201)"/>
<path d="M0 0 C0.66 0.33 1.32 0.66 2 1 C1.236875 1.70125 0.47375 2.4025 -0.3125 3.125 C-2.9998197 5.99980712 -4.31425089 8.4819149 -6 12 C-7.29241051 13.69859667 -8.61490475 15.37609523 -10 17 C-13 11.25 -13 11.25 -13 9 C-11.68 8.34 -10.36 7.68 -9 7 C-9 7.66 -9 8.32 -9 9 C-8.01 8.67 -7.02 8.34 -6 8 C-6 5.69 -6 3.38 -6 1 C-5.67 1.66 -5.34 2.32 -5 3 C-4.21625 2.484375 -3.4325 1.96875 -2.625 1.4375 C-1.75875 0.963125 -0.8925 0.48875 0 0 Z " fill="#3B5F83" transform="translate(244,191)"/>
<path d="M0 0 C2.25 -0.25 2.25 -0.25 5 0 C6.33333333 1.33333333 7.66666667 2.66666667 9 4 C11.58392198 5.31266549 14.1963722 6.50384505 16.85546875 7.65625 C19 9 19 9 19.80078125 11.15625 C19.86652344 11.7646875 19.93226563 12.373125 20 13 C5.65217391 6.10083256 5.65217391 6.10083256 0 2 C0 1.34 0 0.68 0 0 Z " fill="#3A5FA1" transform="translate(162,338)"/>
<path d="M0 0 C-1.23789629 3.71368887 -2.85224877 4.77354181 -6 7 C-6.66 7 -7.32 7 -8 7 C-8 7.66 -8 8.32 -8 9 C-8.94875 9.12375 -9.8975 9.2475 -10.875 9.375 C-14.08667191 9.71687177 -14.08667191 9.71687177 -16 12 C-18.625 12.125 -18.625 12.125 -21 12 C-17.15651589 8.74951058 -13.17601471 6.21217131 -8.8125 3.75 C-8.18408203 3.38648438 -7.55566406 3.02296875 -6.90820312 2.6484375 C-2.25352444 0 -2.25352444 0 0 0 Z " fill="#3D639F" transform="translate(367,347)"/>
<path d="M0 0 C0.33 0 0.66 0 1 0 C1 2.64 1 5.28 1 8 C0.34 8 -0.32 8 -1 8 C-1.1546875 9.051875 -1.1546875 9.051875 -1.3125 10.125 C-2 13 -2 13 -3.5625 15.875 C-5.2234426 19.48574477 -5.23573673 22.07105458 -5 26 C-5.66 26 -6.32 26 -7 26 C-7 25.34 -7 24.68 -7 24 C-7.66 24 -8.32 24 -9 24 C-9 24.66 -9 25.32 -9 26 C-9.66 26 -10.32 26 -11 26 C-10.67 24.68 -10.34 23.36 -10 22 C-9.34 22 -8.68 22 -8 22 C-7.82984375 21.45472656 -7.6596875 20.90945313 -7.484375 20.34765625 C-5.90024622 15.41831936 -4.0695124 10.72931127 -1.8671875 6.04296875 C-1.01830866 4.04313256 -0.46651425 2.11835551 0 0 Z " fill="#516574" transform="translate(323,236)"/>
<path d="M0 0 C5.65438679 0.9423978 9.2758595 2.53103139 13 7 C14.25 10.25 14.25 10.25 15 13 C11.25928847 10.60210799 7.66886284 8.05669084 4.125 5.375 C3.34382812 4.78460938 2.56265625 4.19421875 1.7578125 3.5859375 C1.17773438 3.06257813 0.59765625 2.53921875 0 2 C0 1.34 0 0.68 0 0 Z " fill="#E2CC5E" transform="translate(200,309)"/>
<path d="M0 0 C0.33 0.66 0.66 1.32 1 2 C1.99 2 2.98 2 4 2 C6 5 6 5 6 8 C6.66 8 7.32 8 8 8 C8.33 9.65 8.66 11.3 9 13 C3.51841262 10.02428114 -0.42453092 6.08092974 -4 1 C-2.68 1.33 -1.36 1.66 0 2 C0 1.34 0 0.68 0 0 Z " fill="#E9C857" transform="translate(191,296)"/>
<path d="M0 0 C0.33 0.66 0.66 1.32 1 2 C2.65 1.67 4.3 1.34 6 1 C6 1.99 6 2.98 6 4 C4.78183594 3.96519531 3.56367188 3.93039063 2.30859375 3.89453125 C0.68490972 3.86637488 -0.93878935 3.83907671 -2.5625 3.8125 C-3.36236328 3.78736328 -4.16222656 3.76222656 -4.98632812 3.73632812 C-10.44794805 3.66945115 -14.12924103 4.5090481 -19 7 C-18.75 5.125 -18.75 5.125 -18 3 C-14.49238429 0.59281275 -10.90638999 0.60591056 -6.75 0.375 C-5.48671875 0.30023438 -4.2234375 0.22546875 -2.921875 0.1484375 C-1.47554687 0.07496094 -1.47554687 0.07496094 0 0 Z " fill="#E4F5FD" transform="translate(238,104)"/>
<path d="M0 0 C0 0.99 0 1.98 0 3 C-0.99 3.33 -1.98 3.66 -3 4 C-3.33 4.99 -3.66 5.98 -4 7 C-5.87248867 7.73562055 -7.75081551 8.4599683 -9.65625 9.10546875 C-13.66406745 10.63511908 -17.30600726 12.83661999 -21 15 C-21.66 14.34 -22.32 13.68 -23 13 C-15.41 8.71 -7.82 4.42 0 0 Z " fill="#38619A" transform="translate(331,367)"/>
<path d="M0 0 C0.33 0.99 0.66 1.98 1 3 C-2.98690686 9.80386669 -7.71908119 14.13963904 -15 17 C-15 16.01 -15 15.02 -15 14 C-14.01 14 -13.02 14 -12 14 C-12 13.01 -12 12.02 -12 11 C-11.443125 10.79375 -10.88625 10.5875 -10.3125 10.375 C-8.02890674 9.01718779 -7.0008439 7.92057214 -5.375 5.875 C-4.59125 4.92625 -3.8075 3.9775 -3 3 C-2.34 3 -1.68 3 -1 3 C-0.67 2.01 -0.34 1.02 0 0 Z " fill="#355C94" transform="translate(351,306)"/>
<path d="M0 0 C0.33 0.99 0.66 1.98 1 3 C0.154375 3.0825 -0.69125 3.165 -1.5625 3.25 C-6.88765669 4.41185237 -10.76186164 6.24264233 -13.9375 10.75 C-14.288125 11.4925 -14.63875 12.235 -15 13 C-16.32 12.67 -17.64 12.34 -19 12 C-8.72222935 -1.06368651 -8.72222935 -1.06368651 0 0 Z " fill="#E0D046" transform="translate(259,185)"/>
<path d="M0 0 C0.66 0.66 1.32 1.32 2 2 C1.67767112 5.73847719 0.54580196 8.05122483 -1.72265625 10.98828125 C-2.26083984 11.69404297 -2.79902344 12.39980469 -3.35351562 13.12695312 C-3.91748047 13.84818359 -4.48144531 14.56941406 -5.0625 15.3125 C-5.63033203 16.05306641 -6.19816406 16.79363281 -6.78320312 17.55664062 C-8.1810219 19.37732894 -9.58668809 21.19132942 -11 23 C-11.33 22.34 -11.66 21.68 -12 21 C-11.505 19.515 -11.505 19.515 -11 18 C-10.34 18 -9.68 18 -9 18 C-9.33 17.01 -9.66 16.02 -10 15 C-9.01 15 -8.02 15 -7 15 C-7 13.68 -7 12.36 -7 11 C-6.37609375 10.93941406 -5.7521875 10.87882812 -5.109375 10.81640625 C-2.76632566 10.19151441 -2.76632566 10.19151441 -1.953125 7.71484375 C-1.72109375 6.79832031 -1.4890625 5.88179688 -1.25 4.9375 C-1.00765625 4.01839844 -0.7653125 3.09929687 -0.515625 2.15234375 C-0.34546875 1.44207031 -0.1753125 0.73179687 0 0 Z " fill="#DBC864" transform="translate(310,257)"/>
<path d="M0 0 C0.66 0 1.32 0 2 0 C2 0.99 2 1.98 2 3 C2.99 3 3.98 3 5 3 C4.125 7.75 4.125 7.75 3 10 C2.34 10 1.68 10 1 10 C0.67 10.66 0.34 11.32 0 12 C-1.37562854 10.71034824 -2.70766393 9.37310707 -4 8 C-4 7.34 -4 6.68 -4 6 C-3.01 5.34 -2.02 4.68 -1 4 C-0.27617533 1.94074861 -0.27617533 1.94074861 0 0 Z " fill="#EECB4D" transform="translate(312,248)"/>
<path d="M0 0 C0.99 0.33 1.98 0.66 3 1 C3 1.66 3 2.32 3 3 C2.34 3 1.68 3 1 3 C0.89365234 4.07314453 0.89365234 4.07314453 0.78515625 5.16796875 C-0.22379969 8.80723769 -1.9790426 10.58349571 -4.5625 13.3125 C-5.38878906 14.19550781 -6.21507812 15.07851563 -7.06640625 15.98828125 C-8.02353516 16.98408203 -8.02353516 16.98408203 -9 18 C-9 15 -9 15 -8 13 C-8.66 12.67 -9.32 12.34 -10 12 C-7 10 -7 10 -5 9 C-4.34 9.33 -3.68 9.66 -3 10 C-3 9.34 -3 8.68 -3 8 C-3.66 7.67 -4.32 7.34 -5 7 C-4.34 6.67 -3.68 6.34 -3 6 C-2.34 6.33 -1.68 6.66 -1 7 C-1.33 6.01 -1.66 5.02 -2 4 C-1.0625 1.8125 -1.0625 1.8125 0 0 Z " fill="#F4D238" transform="translate(298,272)"/>
<path d="M0 0 C-5.94 3.3 -11.88 6.6 -18 10 C-18.33 8.68 -18.66 7.36 -19 6 C-17.02 6 -15.04 6 -13 6 C-13 5.01 -13 4.02 -13 3 C-8.36168856 -0.3498916 -5.54920058 -1.38730015 0 0 Z " fill="#E3F1FB" transform="translate(371,345)"/>
<path d="M0 0 C0.2475 0.598125 0.495 1.19625 0.75 1.8125 C2.18072525 4.31626919 3.5691582 5.48072388 6 7 C6.66 7 7.32 7 8 7 C8.28875 7.969375 8.5775 8.93875 8.875 9.9375 C9.64214682 13.10664203 9.64214682 13.10664203 12 14 C11.67 14.99 11.34 15.98 11 17 C11 16.34 11 15.68 11 15 C10.44828125 14.78601563 9.8965625 14.57203125 9.328125 14.3515625 C6.21880764 12.546489 4.08727863 10.05199936 1.75 7.375 C1.29109375 6.859375 0.8321875 6.34375 0.359375 5.8125 C-0.76592296 4.5465398 -1.88372177 3.27392058 -3 2 C-2.01 1.34 -1.02 0.68 0 0 Z " fill="#E6C95E" transform="translate(175,280)"/>
<path d="M0 0 C0.99 0 1.98 0 3 0 C2.875 1.75 2.875 1.75 2 4 C0.03852126 5.38938077 -1.96166576 6.7260411 -4 8 C-4.33 8.66 -4.66 9.32 -5 10 C-6.32 10 -7.64 10 -9 10 C-9 8.68 -9 7.36 -9 6 C-7.68 6 -6.36 6 -5 6 C-4.67 5.01 -4.34 4.02 -4 3 C-3.01 2.67 -2.02 2.34 -1 2 C-0.67 1.34 -0.34 0.68 0 0 Z " fill="#2956B6" transform="translate(317,178)"/>
<path d="M0 0 C13.68265683 6.64206642 13.68265683 6.64206642 18 10 C18 10.66 18 11.32 18 12 C17.47792969 11.72929687 16.95585937 11.45859375 16.41796875 11.1796875 C14.57027615 10.27822843 12.69125756 9.44070836 10.80078125 8.6328125 C9.07408203 7.88644531 9.07408203 7.88644531 7.3125 7.125 C6.15363281 6.63257813 4.99476563 6.14015625 3.80078125 5.6328125 C1 4 1 4 0.10546875 1.8046875 C0.05326172 0.91136719 0.05326172 0.91136719 0 0 Z " fill="#3A609A" transform="translate(288,133)"/>
<path d="M0 0 C0.66 0.33 1.32 0.66 2 1 C1.01 1.33 0.02 1.66 -1 2 C-1 2.66 -1 3.32 -1 4 C-4.45198997 7.24893173 -7.53966832 8.57648989 -12 10 C-14.30166675 11.51553153 -14.30166675 11.51553153 -16 13 C-16.33 12.01 -16.66 11.02 -17 10 C-14.21605957 8.29949343 -11.42172475 6.61688375 -8.625 4.9375 C-7.8309375 4.45216797 -7.036875 3.96683594 -6.21875 3.46679688 C-5.45820313 3.01240234 -4.69765625 2.55800781 -3.9140625 2.08984375 C-2.8614624 1.45357056 -2.8614624 1.45357056 -1.78759766 0.80444336 C-0.90273682 0.4062439 -0.90273682 0.4062439 0 0 Z " fill="#E1F2FB" transform="translate(198,81)"/>
<path d="M0 0 C3.63 0.66 7.26 1.32 11 2 C11 2.99 11 3.98 11 5 C11.99 5 12.98 5 14 5 C14 5.66 14 6.32 14 7 C14.99 7.33 15.98 7.66 17 8 C16.34 8.66 15.68 9.32 15 10 C12.49732313 8.52520827 9.99783579 7.04544936 7.5 5.5625 C6.78457031 5.14162109 6.06914062 4.72074219 5.33203125 4.28710938 C3.53787459 3.21915898 1.76678262 2.11265239 0 1 C0 0.67 0 0.34 0 0 Z " fill="#375FA3" transform="translate(272,81)"/>
<path d="M0 0 C-0.556875 0.4125 -1.11375 0.825 -1.6875 1.25 C-3.31943226 2.48497577 -4.9213458 3.76011028 -6.5 5.0625 C-10.86946627 8.44883636 -13.41269405 9.25396845 -19 9 C-15.78683229 6.49140642 -12.43260116 4.3461945 -8.9375 2.25 C-7.89464844 1.61578125 -6.85179687 0.9815625 -5.77734375 0.328125 C-3 -1 -3 -1 0 0 Z " fill="#DBEEF9" transform="translate(220,71)"/>
<path d="M0 0 C0.66 0 1.32 0 2 0 C0.56533934 5.59517659 -2.20046974 10.64939283 -6 15 C-6.99 15 -7.98 15 -9 15 C-7.72784053 9.91136214 -6.07023047 8.15442862 -2 5 C-0.66701026 2.38181544 -0.66701026 2.38181544 0 0 Z " fill="#E4F3FC" transform="translate(387,322)"/>
<path d="M0 0 C0.99 0 1.98 0 3 0 C2.65978036 3.17538332 1.97533396 4.02276865 -0.4375 6.25 C-3 8 -3 8 -5 8 C-5 8.66 -5 9.32 -5 10 C-5.66 10 -6.32 10 -7 10 C-7 9.34 -7 8.68 -7 8 C-7.66 8 -8.32 8 -9 8 C-9 7.01 -9 6.02 -9 5 C-8.01 4.67 -7.02 4.34 -6 4 C-5.34 3.34 -4.68 2.68 -4 2 C-4 2.66 -4 3.32 -4 4 C-2.68 3.67 -1.36 3.34 0 3 C0 2.01 0 1.02 0 0 Z " fill="#F1D043" transform="translate(247,322)"/>
<path d="M0 0 C0.66 0.33 1.32 0.66 2 1 C2 1.66 2 2.32 2 3 C2.99 3 3.98 3 5 3 C7 6 7 6 7 9 C6.34 9 5.68 9 5 9 C4.67 7.68 4.34 6.36 4 5 C2.35 5.33 0.7 5.66 -1 6 C-1 6.99 -1 7.98 -1 9 C-2.32 9 -3.64 9 -5 9 C-5 8.01 -5 7.02 -5 6 C-4.01 5.67 -3.02 5.34 -2 5 C-0.78130071 2.49552484 -0.78130071 2.49552484 0 0 Z " fill="#225D9E" transform="translate(151,263)"/>
<path d="M0 0 C1.1287504 3.55122241 1.00114423 6.73306437 0.875 10.4375 C0.79934902 17.6470381 2.06907987 24.08086953 4 31 C0.22342856 28.4822857 0.01851731 27.38300342 -1 23 C-1.2508263 19.41181045 -1.23422334 15.84523778 -1.1875 12.25 C-1.18685547 11.29222656 -1.18621094 10.33445313 -1.18554688 9.34765625 C-1.14069754 2.28139509 -1.14069754 2.28139509 0 0 Z " fill="#415E7C" transform="translate(144,214)"/>
<path d="M0 0 C-1.40019875 4.20059624 -4.36825877 5.19051525 -8.0625 7.1875 C-8.72572266 7.55552734 -9.38894531 7.92355469 -10.07226562 8.30273438 C-11.71027457 9.21012062 -13.35456221 10.10615573 -15 11 C-15.33 10.01 -15.66 9.02 -16 8 C-3.54150198 0 -3.54150198 0 0 0 Z " fill="#E1F3FB" transform="translate(181,131)"/>
<path d="M0 0 C0.53625 0.37125 1.0725 0.7425 1.625 1.125 C1.295 1.455 0.965 1.785 0.625 2.125 C1.285 2.785 1.945 3.445 2.625 4.125 C2.625 5.115 2.625 6.105 2.625 7.125 C-1.88302601 5.86694623 -4.8662812 4.22092835 -8.375 1.125 C-2.95961538 -1.09038462 -2.95961538 -1.09038462 0 0 Z " fill="#F1F9F6" transform="translate(165.375,376.875)"/>
<path d="M0 0 C1.66666667 1 3.33333333 2 5 3 C7.31691454 3.72166191 9.64848923 4.40059529 12 5 C12.33 6.65 12.66 8.3 13 10 C11.05886066 9.07005883 9.1222049 8.1307547 7.1875 7.1875 C6.10855469 6.66542969 5.02960938 6.14335937 3.91796875 5.60546875 C1.43420298 4.23889883 -0.1799378 3.12659899 -2 1 C-1.34 0.67 -0.68 0.34 0 0 Z " fill="#E1F2FA" transform="translate(123,356)"/>
<path d="M0 0 C1.32 0.66 2.64 1.32 4 2 C4 3.65 4 5.3 4 7 C5.32 7.33 6.64 7.66 8 8 C8 8.66 8 9.32 8 10 C4.39703406 10.41176754 3.21597933 10.1535853 0.1875 8 C-0.534375 7.34 -1.25625 6.68 -2 6 C-1.34 4.02 -0.68 2.04 0 0 Z " fill="#2C58B5" transform="translate(216,326)"/>
<path d="M0 0 C2.30619448 3.07492597 4.03309044 5.74167823 5.75 9.125 C6.19859375 9.99382812 6.6471875 10.86265625 7.109375 11.7578125 C7.40328125 12.49773437 7.6971875 13.23765625 8 14 C7.67 14.66 7.34 15.32 7 16 C6.67 15.01 6.34 14.02 6 13 C5.01 12.67 4.02 12.34 3 12 C3 11.01 3 10.02 3 9 C1.35 9.66 -0.3 10.32 -2 11 C-1.34 7.37 -0.68 3.74 0 0 Z " fill="#48687E" transform="translate(148,245)"/>
<path d="M0 0 C2.31 1.98 4.62 3.96 7 6 C4 7 4 7 1.5 7.4375 C-1.23091369 7.8950072 -1.23091369 7.8950072 -4 10 C-3.43454163 6.04179141 -2.19097652 3.3340947 0 0 Z " fill="#E2F1FC" transform="translate(84,152)"/>
<path d="M0 0 C2.64752004 2.57784846 4.94432065 4.91648098 7 8 C5.68 8 4.36 8 3 8 C2.34 9.32 1.68 10.64 1 12 C0.34 12 -0.32 12 -1 12 C-0.73958333 10.046875 -0.47916667 8.09375 -0.21875 6.140625 C0.06777357 3.69541605 0.06777357 3.69541605 0 0 Z " fill="#2B58AC" transform="translate(165,274)"/>
<path d="M0 0 C0.99 0 1.98 0 3 0 C3.020625 0.99 3.04125 1.98 3.0625 3 C3.65686696 7.56919599 6.35291617 10.03311486 9.50390625 13.203125 C11 15 11 15 11 18 C6.17158935 13.57582838 2.87399525 10.4028171 1 4 C-1.03243548 3.03122943 -1.03243548 3.03122943 -3 3 C-2.01 2.67 -1.02 2.34 0 2 C0 1.34 0 0.68 0 0 Z " fill="#365F89" transform="translate(218,180)"/>
<path d="M0 0 C1.65 1.32 3.3 2.64 5 4 C4.67 4.66 4.34 5.32 4 6 C1.525 5.01 1.525 5.01 -1 4 C-1.7425 4.66 -2.485 5.32 -3.25 6 C-6 8 -6 8 -10 8 C-8.76736651 4.30209954 -7.79947549 4.0645154 -4.4375 2.3125 C-3.61121094 1.87550781 -2.78492188 1.43851563 -1.93359375 0.98828125 C-1.29550781 0.66214844 -0.65742188 0.33601562 0 0 Z " fill="#365FA1" transform="translate(185,130)"/>
<path d="M0 0 C2.33944736 0.28730055 4.6739143 0.61936779 7 1 C2.98745115 4.51098025 -1.20983041 6.76537994 -6 9 C-6 6 -6 6 -3.5625 3.375 C-2.716875 2.59125 -1.87125 1.8075 -1 1 C-0.67 0.67 -0.34 0.34 0 0 Z " fill="#E6F3FB" transform="translate(289,386)"/>
<path d="M0 0 C1.3921875 0.0928125 1.3921875 0.0928125 2.8125 0.1875 C0.4192214 2.80121215 -2.17147046 4.58838665 -5.1875 6.4375 C-6.486875 7.24960937 -6.486875 7.24960937 -7.8125 8.078125 C-10.1875 9.1875 -10.1875 9.1875 -13.1875 8.1875 C-10.90786239 4.76804359 -9.86152889 4.62126737 -6.1875 3.1875 C-5.713125 2.65125 -5.23875 2.115 -4.75 1.5625 C-3.1875 0.1875 -3.1875 0.1875 0 0 Z " fill="#3B5EA5" transform="translate(330.1875,323.8125)"/>
<path d="M0 0 C1.32 0.33 2.64 0.66 4 1 C4 1.66 4 2.32 4 3 C2.25 4.7265625 2.25 4.7265625 0 6.625 C-0.7425 7.25664062 -1.485 7.88828125 -2.25 8.5390625 C-2.8275 9.02117187 -3.405 9.50328125 -4 10 C-4.66 8.68 -5.32 7.36 -6 6 C-4.6875 4.5 -4.6875 4.5 -3 3 C-2.01 3 -1.02 3 0 3 C0 2.01 0 1.02 0 0 Z " fill="#E3F3FD" transform="translate(352,129)"/>
<path d="M0 0 C0 0.66 0 1.32 0 2 C-0.99 2 -1.98 2 -3 2 C-3 2.66 -3 3.32 -3 4 C-2.34 4.66 -1.68 5.32 -1 6 C-1.556875 6.12375 -2.11375 6.2475 -2.6875 6.375 C-8.23567052 7.84635662 -8.23567052 7.84635662 -12 12 C-12.66 12 -13.32 12 -14 12 C-14 11.34 -14 10.68 -14 10 C-13.34 10 -12.68 10 -12 10 C-11.67 9.01 -11.34 8.02 -11 7 C-9.00390625 5.17578125 -9.00390625 5.17578125 -6.5625 3.3125 C-5.75941406 2.68988281 -4.95632812 2.06726563 -4.12890625 1.42578125 C-2 0 -2 0 0 0 Z " fill="#DBC864" transform="translate(168,185)"/>
<path d="M0 0 C2.60797351 1.26347163 5.21123407 2.53535224 7.8125 3.8125 C8.55048828 4.16892578 9.28847656 4.52535156 10.04882812 4.89257812 C10.76103516 5.24384766 11.47324219 5.59511719 12.20703125 5.95703125 C12.8616333 6.27647705 13.51623535 6.59592285 14.19067383 6.92504883 C16.11617064 8.06901894 17.48835511 9.35744135 19 11 C16.03 10.505 16.03 10.505 13 10 C13 9.34 13 8.68 13 8 C12.4225 7.855625 11.845 7.71125 11.25 7.5625 C9.16666667 7.04166667 7.08333333 6.52083333 5 6 C5 5.34 5 4.68 5 4 C2.525 3.01 2.525 3.01 0 2 C0 1.34 0 0.68 0 0 Z " fill="#3F629A" transform="translate(128,362)"/>
<path d="M0 0 C0.99 0 1.98 0 3 0 C3 0.66 3 1.32 3 2 C4.32 2 5.64 2 7 2 C7 2.66 7 3.32 7 4 C7.99 4 8.98 4 10 4 C10 4.99 10 5.98 10 7 C11.32 7 12.64 7 14 7 C13.67 8.32 13.34 9.64 13 11 C11.85050412 10.21366078 10.70551011 9.42073742 9.5625 8.625 C8.92441406 8.18414062 8.28632813 7.74328125 7.62890625 7.2890625 C6 6 6 6 5 4 C3.35636866 3.27840576 1.68949614 2.60648579 0 2 C0 1.34 0 0.68 0 0 Z " fill="#33578D" transform="translate(298,181)"/>
<path d="M0 0 C0 0.99 0 1.98 0 3 C-0.66 3 -1.32 3 -2 3 C-2.33 3.66 -2.66 4.32 -3 5 C-3.78375 5.309375 -4.5675 5.61875 -5.375 5.9375 C-8.02151902 6.79147603 -8.02151902 6.79147603 -9.5 8.625 C-11 10 -11 10 -13.6875 10.1875 C-14.450625 10.125625 -15.21375 10.06375 -16 10 C-13.32401709 6.86030886 -9.91405704 5.18156373 -6.3125 3.3125 C-5.70599609 2.99216797 -5.09949219 2.67183594 -4.47460938 2.34179688 C-2.98565434 1.55628516 -1.49316953 0.77747058 0 0 Z " fill="#DEEEFB" transform="translate(176,94)"/>
<path d="M0 0 C0.33 0.66 0.66 1.32 1 2 C0.67 2.66 0.34 3.32 0 4 C0.66 4.33 1.32 4.66 2 5 C1.67 5.66 1.34 6.32 1 7 C-1.875 7.1875 -1.875 7.1875 -5 7 C-5.66 6.01 -6.32 5.02 -7 4 C-4.69 2.68 -2.38 1.36 0 0 Z " fill="#3061A8" transform="translate(262,407)"/>
<path d="M0 0 C1.98 0 3.96 0 6 0 C-3.42857143 8 -3.42857143 8 -8 8 C-8.66 6.68 -9.32 5.36 -10 4 C-9.4225 4.226875 -8.845 4.45375 -8.25 4.6875 C-5.89006205 5.27095593 -5.89006205 5.27095593 -3.875 3.5625 C-2.946875 2.7890625 -2.946875 2.7890625 -2 2 C-1.34 2 -0.68 2 0 2 C0 1.34 0 0.68 0 0 Z " fill="#4167A4" transform="translate(267,359)"/>
<path d="M0 0 C0.66 0.66 1.32 1.32 2 2 C-2.62 4.64 -7.24 7.28 -12 10 C-12 9.01 -12 8.02 -12 7 C-9.1875 4.9375 -9.1875 4.9375 -6 3 C-5.01 2.34 -4.02 1.68 -3 1 C-2.01 0.67 -1.02 0.34 0 0 Z " fill="#E5F5FB" transform="translate(349,354)"/>
<path d="M0 0 C3.375 -0.125 3.375 -0.125 7 0 C7.66 0.66 8.32 1.32 9 2 C9 1.34 9 0.68 9 0 C10.32 0.66 11.64 1.32 13 2 C10.73367014 4.09845357 9.64750486 5.01618762 6.5 4.9375 C3.54646679 3.82992505 2.05436898 2.35871993 0 0 Z " fill="#E6C960" transform="translate(227,331)"/>
<path d="M0 0 C0.66 0.33 1.32 0.66 2 1 C1.34 2.32 0.68 3.64 0 5 C-0.66 5 -1.32 5 -2 5 C-1.67 6.65 -1.34 8.3 -1 10 C-2.093125 9.835 -3.18625 9.67 -4.3125 9.5 C-7.87525873 8.93281816 -7.87525873 8.93281816 -11 9 C-7.25 6 -7.25 6 -5 6 C-5 5.34 -5 4.68 -5 4 C-3.37373596 2.61767557 -1.7074998 1.28062485 0 0 Z " fill="#5A7085" transform="translate(247,326)"/>
<path d="M0 0 C0.8971875 0.309375 0.8971875 0.309375 1.8125 0.625 C-0.14269384 1.79692047 -2.1017539 2.9623929 -4.0625 4.125 C-5.15304687 4.7746875 -6.24359375 5.424375 -7.3671875 6.09375 C-10.1875 7.625 -10.1875 7.625 -12.1875 7.625 C-12.0625 5.75 -12.0625 5.75 -11.1875 3.625 C-8.3125 2.5 -8.3125 2.5 -5.1875 1.625 C-2.1875 -0.375 -2.1875 -0.375 0 0 Z " fill="#355DA0" transform="translate(284.1875,351.375)"/>
<path d="M0 0 C1.98 0.99 1.98 0.99 4 2 C4 2.99 4 3.98 4 5 C6.31 5.66 8.62 6.32 11 7 C11 8.32 11 9.64 11 11 C7.20450741 10.45418801 5.69020705 8.94590705 3.25 6.0625 C2.63640625 5.35222656 2.0228125 4.64195312 1.390625 3.91015625 C0 2 0 2 0 0 Z " fill="#355C9A" transform="translate(117,307)"/>
<path d="M0 0 C0.66 0.33 1.32 0.66 2 1 C1.278125 1.70125 0.55625 2.4025 -0.1875 3.125 C-2.14884962 5.05329317 -3.79748017 7.04555776 -5.4375 9.25 C-8.35394155 12.37983971 -9.80823286 12.80503409 -14 13 C-10.8603703 9.73961532 -7.47484867 6.89570723 -4 4 C-2.64900897 2.68456137 -1.30794331 1.35824882 0 0 Z " fill="#5A746A" transform="translate(275,303)"/>
<path d="M0 0 C0.99 0.33 1.98 0.66 3 1 C3 2.65 3 4.3 3 6 C1.68 6 0.36 6 -1 6 C-1 7.32 -1 8.64 -1 10 C-1.99 10 -2.98 10 -4 10 C-3.67 8.35 -3.34 6.7 -3 5 C-2.34 5 -1.68 5 -1 5 C-0.67 3.35 -0.34 1.7 0 0 Z " fill="#FBD425" transform="translate(307,196)"/>
<path d="M0 0 C5.07009471 0.47532138 8.97493258 3.04362294 13 6 C13 6.33 13 6.66 13 7 C10.69 6.67 8.38 6.34 6 6 C6 5.34 6 4.68 6 4 C3.36 3.67 0.72 3.34 -2 3 C-1.34 2.01 -0.68 1.02 0 0 Z " fill="#39639F" transform="translate(179,392)"/>
<path d="M0 0 C1.32 0 2.64 0 4 0 C4 0.66 4 1.32 4 2 C4.66 2 5.32 2 6 2 C6.33 2.66 6.66 3.32 7 4 C7.66 4 8.32 4 9 4 C10 6 10 6 11 9 C10.67 9.66 10.34 10.32 10 11 C8.33035479 9.35718838 6.6643536 7.71067239 5 6.0625 C4.071875 5.14597656 3.14375 4.22945312 2.1875 3.28515625 C0 1 0 1 0 0 Z " fill="#4C73AD" transform="translate(84,151)"/>
<path d="M0 0 C-4.95 2.97 -9.9 5.94 -15 9 C-15 8.01 -15 7.02 -15 6 C-12.48046875 4.140625 -12.48046875 4.140625 -9.1875 2.25 C-8.10855469 1.61578125 -7.02960938 0.9815625 -5.91796875 0.328125 C-3 -1 -3 -1 0 0 Z " fill="#E5F4FC" transform="translate(160,145)"/>
<path d="M0 0 C3.3 1.65 6.6 3.3 10 5 C10 5.99 10 6.98 10 8 C4.5388601 7.11917098 4.5388601 7.11917098 2 6 C0.5 2.875 0.5 2.875 0 0 Z " fill="#E5F4FB" transform="translate(296,96)"/>
<path d="M0 0 C3.05939031 2.94172145 5.80958875 6.07030597 8.53515625 9.31640625 C9.9594908 10.95344142 11.4477939 12.48464152 13 14 C9.70724395 13.40527314 7.86941865 12.33371431 5.375 10.125 C4.48941406 9.35542969 4.48941406 9.35542969 3.5859375 8.5703125 C2 7 2 7 0 4 C0 2.68 0 1.36 0 0 Z " fill="#3B619A" transform="translate(82,329)"/>
<path d="M0 0 C0.33 0 0.66 0 1 0 C1.24360427 2.92325122 1.19608294 4.62847443 -0.1875 7.25 C-2.40308719 9.38918764 -3.98197607 9.67372714 -7 10 C-7 10.66 -7 11.32 -7 12 C-7.66 11.67 -8.32 11.34 -9 11 C-8.51789063 10.45730469 -8.03578125 9.91460937 -7.5390625 9.35546875 C-6.90742188 8.64003906 -6.27578125 7.92460937 -5.625 7.1875 C-4.68527344 6.12595703 -4.68527344 6.12595703 -3.7265625 5.04296875 C-1.859401 2.91196181 -1.859401 2.91196181 0 0 Z " fill="#46608A" transform="translate(304,272)"/>
<path d="M0 0 C0.99 0.33 1.98 0.66 3 1 C3 1.66 3 2.32 3 3 C4.32 3.33 5.64 3.66 7 4 C0.25 8 0.25 8 -2 8 C-1.125 2.25 -1.125 2.25 0 0 Z " fill="#E7F5F6" transform="translate(255,404)"/>
<path d="M0 0 C0.66 0 1.32 0 2 0 C2.83764268 1.95649397 3.66999059 3.91525556 4.5 5.875 C5.19609375 7.51082031 5.19609375 7.51082031 5.90625 9.1796875 C7 12 7 12 7 14 C4.40420153 13.0078043 3.23548746 12.46306676 1.953125 9.94140625 C1.72109375 9.15636719 1.4890625 8.37132812 1.25 7.5625 C1.00765625 6.78003906 0.7653125 5.99757813 0.515625 5.19140625 C0 3 0 3 0 0 Z " fill="#E0F0FA" transform="translate(112,298)"/>
<path d="M0 0 C3.78496138 1.51398455 4.0072198 2.0144396 6 6 C3.03 6.66 0.06 7.32 -3 8 C-3 7.01 -3 6.02 -3 5 C-2.01 5 -1.02 5 0 5 C0 3.35 0 1.7 0 0 Z " fill="#38678D" transform="translate(182,293)"/>
<path d="M0 0 C0.6875 1.75 0.6875 1.75 1 4 C-0.60357433 7.20714865 -1.81625958 7.92794493 -5.1875 9.25 C-6.115625 9.4975 -7.04375 9.745 -8 10 C-5.61820737 6.25718301 -3.25524265 3.02272532 0 0 Z " fill="#4D6579" transform="translate(294,284)"/>
<path d="M0 0 C0.99 0.33 1.98 0.66 3 1 C-0.16952847 4.26008643 -3.39937989 7.22237877 -7 10 C-7 8.68 -7 7.36 -7 6 C-6.34 6 -5.68 6 -5 6 C-4.34 4.68 -3.68 3.36 -3 2 C-2.01 2 -1.02 2 0 2 C0 1.34 0 0.68 0 0 Z " fill="#375E9F" transform="translate(367,166)"/>
<path d="M0 0 C4.56454251 0.54339792 7.9728176 1.79463821 12 4 C12 4.99 12 5.98 12 7 C7.39104317 5.68315519 3.85859765 3.84801255 0 1 C0 0.67 0 0.34 0 0 Z " fill="#DAEDF7" transform="translate(281,128)"/>
<path d="M0 0 C0.99 0.33 1.98 0.66 3 1 C0.13301658 4.49413605 -1.84150148 6.28836874 -6.3125 6.8125 C-8.1378125 6.9053125 -8.1378125 6.9053125 -10 7 C-6.81516089 4.36113331 -3.7101179 1.85505895 0 0 Z " fill="#DBEBF7" transform="translate(130,120)"/>
<path d="M0 0 C-5.94 3.465 -5.94 3.465 -12 7 C-12.66 6.34 -13.32 5.68 -14 5 C-9.25 2 -9.25 2 -7 2 C-7 1.34 -7 0.68 -7 0 C-4 -1 -4 -1 0 0 Z " fill="#3A629D" transform="translate(196,83)"/>
<path d="M0 0 C0.556875 0.70125 1.11375 1.4025 1.6875 2.125 C4.09124732 5.11344261 6.53810432 8.05940238 9 11 C8.67 11.66 8.34 12.32 8 13 C4.38652145 10.36313727 1.93227617 8.06794982 0 4 C0 2.68 0 1.36 0 0 Z " fill="#496177" transform="translate(156,261)"/>
<path d="M0 0 C0.99 0.66 1.98 1.32 3 2 C1.40377344 3.03320481 -0.20229106 4.05122429 -1.8125 5.0625 C-3.15248047 5.91521484 -3.15248047 5.91521484 -4.51953125 6.78515625 C-7 8 -7 8 -10 7 C-9.34 6.34 -8.68 5.68 -8 5 C-7.01 5 -6.02 5 -5 5 C-4.67 4.01 -4.34 3.02 -4 2 C-1.9375 0.8125 -1.9375 0.8125 0 0 Z " fill="#E1F1FB" transform="translate(333,363)"/>
<path d="M0 0 C4.51478398 0.53115106 7.34666857 2.36620292 11 5 C10.01 5.66 9.02 6.32 8 7 C1.125 3.375 1.125 3.375 0 0 Z " fill="#3B62A3" transform="translate(147,329)"/>
<path d="M0 0 C1.32 0.33 2.64 0.66 4 1 C4.28875 2.134375 4.5775 3.26875 4.875 4.4375 C5.24625 5.613125 5.6175 6.78875 6 8 C6.66 8.33 7.32 8.66 8 9 C8.625 11.5625 8.625 11.5625 9 14 C4.30732011 9.9590812 2.2349326 5.73091655 0 0 Z " fill="#E9C857" transform="translate(163,267)"/>
<path d="M0 0 C-1.32 0.33 -2.64 0.66 -4 1 C-4 1.99 -4 2.98 -4 4 C-5.98 4.66 -7.96 5.32 -10 6 C-10.33 4.02 -10.66 2.04 -11 0 C-10.67 0.66 -10.34 1.32 -10 2 C-8.906875 1.484375 -7.81375 0.96875 -6.6875 0.4375 C-3 -1 -3 -1 0 0 Z " fill="#385D9B" transform="translate(174,180)"/>
<path d="M0 0 C4.13621084 3.3810038 7.81316569 6.66590534 11 11 C10.01 11.495 10.01 11.495 9 12 C9 11.34 9 10.68 9 10 C8.34 10 7.68 10 7 10 C7 9.34 7 8.68 7 8 C5.68 7.67 4.36 7.34 3 7 C3 6.01 3 5.02 3 4 C2.01 3.67 1.02 3.34 0 3 C0 2.01 0 1.02 0 0 Z " fill="#4066A2" transform="translate(115,132)"/>
<path d="M0 0 C3.375 0.3125 3.375 0.3125 7 1 C7.66 1.99 8.32 2.98 9 4 C11.05925139 4.72382467 11.05925139 4.72382467 13 5 C13 5.66 13 6.32 13 7 C7.92990529 6.52467862 4.02506742 3.95637706 0 1 C0 0.67 0 0.34 0 0 Z " fill="#3E689D" transform="translate(344,123)"/>
<path d="M0 0 C0.33 0.66 0.66 1.32 1 2 C0 3.9375 0 3.9375 -2 6 C-4.69924572 6.66549451 -7.20631637 6.81680763 -10 7 C-7.2180632 3.72713318 -3.72045933 2.03572303 0 0 Z " fill="#3D65A4" transform="translate(204,119)"/>
<path d="M0 0 C3.5875213 1.33250791 6.8364623 2.830717 10 5 C10 5.66 10 6.32 10 7 C2.18363463 5.08277831 2.18363463 5.08277831 0 2 C0 1.34 0 0.68 0 0 Z " fill="#E5F4FC" transform="translate(325,113)"/>
<path d="M0 0 C1.67299959 0.65061095 3.33859237 1.32033324 5 2 C5.7425 2.28875 6.485 2.5775 7.25 2.875 C9 4 9 4 9.609375 6.0703125 C9.73828125 6.70710938 9.8671875 7.34390625 10 8 C8.70141061 7.43224464 7.41129559 6.84508337 6.125 6.25 C5.40570313 5.92515625 4.68640625 5.6003125 3.9453125 5.265625 C1.6629326 3.78070314 0.99624102 2.49584592 0 0 Z " fill="#4265A7" transform="translate(172,343)"/>
<path d="M0 0 C-2.77280706 3.08089673 -5.06326356 4.68775452 -9 6 C-9.66 5.34 -10.32 4.68 -11 4 C-9.73760288 3.13341385 -8.46472499 2.28207941 -7.1875 1.4375 C-6.47980469 0.96183594 -5.77210938 0.48617188 -5.04296875 -0.00390625 C-3 -1 -3 -1 0 0 Z " fill="#E2F3FB" transform="translate(343,321)"/>
<path d="M0 0 C0.61875 0.165 1.2375 0.33 1.875 0.5 C4.16786836 1.23577017 4.16786836 1.23577017 7 0 C7.33 1.98 7.66 3.96 8 6 C4.22454612 4.90931332 1.52956528 4.0916909 -1 1 C-0.67 0.67 -0.34 0.34 0 0 Z " fill="#E8F4FC" transform="translate(200,401)"/>
<path d="M0 0 C2.31 0.33 4.62 0.66 7 1 C4.94766315 3.2477975 3.99332739 4.0022242 1 5 C0.01 4.34 -0.98 3.68 -2 3 C-1.34 2.01 -0.68 1.02 0 0 Z " fill="#3660B1" transform="translate(293,342)"/>
<path d="M0 0 C3.59634744 3.49359465 6.83451967 7.11098131 10 11 C9.01 11 8.02 11 7 11 C7 10.34 7 9.68 7 9 C6.01 9 5.02 9 4 9 C3.67 8.01 3.34 7.02 3 6 C2.34 5.67 1.68 5.34 1 5 C0.375 2.4375 0.375 2.4375 0 0 Z " fill="#4B697B" transform="translate(172,282)"/>
<path d="M0 0 C1.65 0 3.3 0 5 0 C4.67 2.97 4.34 5.94 4 9 C1.18167487 7.59083743 0.97406539 5.92219617 0 3 C0 2.01 0 1.02 0 0 Z " fill="#E6D052" transform="translate(147,240)"/>
<path d="M0 0 C1.32 0 2.64 0 4 0 C4 0.66 4 1.32 4 2 C5.32 2.33 6.64 2.66 8 3 C7 4 7 4 3.625 4.0625 C2.42875 4.041875 1.2325 4.02125 0 4 C-0.99 4 -1.98 4 -3 4 C-1.75 2 -1.75 2 0 0 Z " fill="#2F57AA" transform="translate(261,316)"/>
<path d="M0 0 C0.33 0 0.66 0 1 0 C1.46192125 4.92715996 -0.1724717 8.50732625 -2 13 C-2.33 13 -2.66 13 -3 13 C-3.27131956 7.66404866 -3.4266889 4.38616179 0 0 Z " fill="#1E5EB9" transform="translate(327,235)"/>
<path d="M0 0 C4.66283606 3.51582826 7.72210402 6.03648545 9 12 C8.01 12 7.02 12 6 12 C6 10.35 6 8.7 6 7 C5.34 7 4.68 7 4 7 C4 6.34 4 5.68 4 5 C3.34 5 2.68 5 2 5 C1.34 3.35 0.68 1.7 0 0 Z " fill="#CEC468" transform="translate(223,192)"/>
<path d="M0 0 C0.66 0.33 1.32 0.66 2 1 C0.8553125 2.051875 0.8553125 2.051875 -0.3125 3.125 C-2.96590478 5.96352604 -4.44000743 8.46949051 -6 12 C-7.4434926 9.11301479 -6.63373626 7.10530768 -6 4 C-5.67 3.01 -5.34 2.02 -5 1 C-5 1.66 -5 2.32 -5 3 C-3.824375 2.2265625 -3.824375 2.2265625 -2.625 1.4375 C-1.75875 0.963125 -0.8925 0.48875 0 0 Z " fill="#557174" transform="translate(244,191)"/>
<path d="M0 0 C-4.21737229 2.25930658 -8.32956904 3.09186065 -13 4 C-8.82706447 -0.59022909 -6.10401949 -1.38727716 0 0 Z " fill="#305D9D" transform="translate(287,397)"/>
<path d="M0 0 C0 0.99 0 1.98 0 3 C-0.99 3.33 -1.98 3.66 -3 4 C-3.33 4.99 -3.66 5.98 -4 7 C-6.31 7 -8.62 7 -11 7 C-7.54319097 4.23455278 -3.85658398 2.15078722 0 0 Z " fill="#4169A1" transform="translate(331,367)"/>
<path d="M0 0 C0.66 0.33 1.32 0.66 2 1 C0.35 2.98 -1.3 4.96 -3 7 C-4.32 6.67 -5.64 6.34 -7 6 C-7 5.34 -7 4.68 -7 4 C-1.7265625 0.77734375 -1.7265625 0.77734375 0 0 Z " fill="#E2F3FB" transform="translate(330,326)"/>
<path d="M0 0 C0.99 0.33 1.98 0.66 3 1 C1.35 2.65 -0.3 4.3 -2 6 C-2.33 5.34 -2.66 4.68 -3 4 C-3.66 4 -4.32 4 -5 4 C-5 3.01 -5 2.02 -5 1 C-3.35 1 -1.7 1 0 1 C0 0.67 0 0.34 0 0 Z " fill="#E4CB53" transform="translate(277,298)"/>
<path d="M0 0 C0.33 0.99 0.66 1.98 1 3 C-1.31 4.98 -3.62 6.96 -6 9 C-6.99 8.34 -7.98 7.68 -9 7 C-7.2421875 6.05598958 -5.484375 5.11197917 -3.7265625 4.16796875 C-1.69497635 2.95236507 -1.69497635 2.95236507 0 0 Z " fill="#2A57A5" transform="translate(294,288)"/>
<path d="M0 0 C1.32 0.66 2.64 1.32 4 2 C1.69 4.31 -0.62 6.62 -3 9 C-3 6 -3 6 -2 4 C-2.66 3.67 -3.32 3.34 -4 3 C-3.01 2.34 -2.02 1.68 -1 1 C-0.67 0.67 -0.34 0.34 0 0 Z " fill="#E9CC5F" transform="translate(292,281)"/>
<path d="M0 0 C1.5 1.3125 1.5 1.3125 3 3 C3 3.99 3 4.98 3 6 C2.34 6 1.68 6 1 6 C0.67 7.32 0.34 8.64 0 10 C-0.33 10 -0.66 10 -1 10 C-1.125 2.25 -1.125 2.25 0 0 Z " fill="#FFC945" transform="translate(155,218)"/>
<path d="M0 0 C0.33 0.99 0.66 1.98 1 3 C-0.2065625 3.8971875 -0.2065625 3.8971875 -1.4375 4.8125 C-4.22327984 6.80947276 -4.22327984 6.80947276 -5 10 C-6.32 9.67 -7.64 9.34 -9 9 C-8.06725891 7.87105124 -7.12859878 6.74699124 -6.1875 5.625 C-5.66542969 4.99851563 -5.14335937 4.37203125 -4.60546875 3.7265625 C-3 2 -3 2 0 0 Z " fill="#D6C373" transform="translate(249,188)"/>
<path d="M0 0 C2.38564077 0.57584432 4.66682784 1.22227595 7 2 C7 2.99 7 3.98 7 5 C7.66 5.33 8.32 5.66 9 6 C8.34 6.66 7.68 7.32 7 8 C5.83035398 6.8572081 4.66435444 5.71068285 3.5 4.5625 C2.8503125 3.92441406 2.200625 3.28632813 1.53125 2.62890625 C0 1 0 1 0 0 Z " fill="#4F72AA" transform="translate(101,168)"/>
<path d="M0 0 C4.30764815 1.56641751 8.06171464 3.68336156 12 6 C9.46100862 6.9435441 8.39090725 7.16906025 5.859375 6.07421875 C5.16328125 5.61660156 4.4671875 5.15898437 3.75 4.6875 C3.04359375 4.23761719 2.3371875 3.78773438 1.609375 3.32421875 C1.07828125 2.88722656 0.5471875 2.45023437 0 2 C0 1.34 0 0.68 0 0 Z " fill="#E0F1FB" transform="translate(129,321)"/>
<path d="M0 0 C1.31611677 0.95336021 2.62778961 1.91285774 3.9375 2.875 C4.66839844 3.40867187 5.39929688 3.94234375 6.15234375 4.4921875 C8 6 8 6 9 8 C8.01 8 7.02 8 6 8 C6 7.34 6 6.68 6 6 C4.68 6 3.36 6 2 6 C2 5.01 2 4.02 2 3 C1.01 3.33 0.02 3.66 -1 4 C-0.67 2.68 -0.34 1.36 0 0 Z " fill="#3A5E82" transform="translate(202,312)"/>
<path d="M0 0 C1.67542976 0.28604898 3.34385343 0.61781233 5 1 C5 1.99 5 2.98 5 4 C3.35 4.33 1.7 4.66 0 5 C-0.5625 3.0625 -0.5625 3.0625 -1 1 C-0.67 0.67 -0.34 0.34 0 0 Z " fill="#FECD46" transform="translate(216,312)"/>
<path d="M0 0 C-0.66 1.32 -1.32 2.64 -2 4 C-2.66 4 -3.32 4 -4 4 C-4 4.66 -4 5.32 -4 6 C-4.99 6.33 -5.98 6.66 -7 7 C-7 5.35 -7 3.7 -7 2 C-4.35261084 0.5393715 -3.10551666 0 0 0 Z " fill="#E0CB51" transform="translate(288,290)"/>
<path d="M0 0 C1.4783226 2.95664519 1.06032783 5.74229737 1 9 C0.34 9 -0.32 9 -1 9 C-1 8.34 -1 7.68 -1 7 C-1.66 7 -2.32 7 -3 7 C-3 7.66 -3 8.32 -3 9 C-3.66 9 -4.32 9 -5 9 C-4.67 7.68 -4.34 6.36 -4 5 C-3.34 5 -2.68 5 -2 5 C-1.34 3.35 -0.68 1.7 0 0 Z " fill="#436183" transform="translate(317,253)"/>
<path d="M0 0 C2.31 0.66 4.62 1.32 7 2 C8.125 5.75 8.125 5.75 7 8 C5.83035398 6.8572081 4.66435444 5.71068285 3.5 4.5625 C2.8503125 3.92441406 2.200625 3.28632813 1.53125 2.62890625 C0 1 0 1 0 0 Z " fill="#DDECFC" transform="translate(128,144)"/>
<path d="M0 0 C3.3 1.65 6.6 3.3 10 5 C9.67 5.66 9.34 6.32 9 7 C7.35 6.67 5.7 6.34 4 6 C4 5.34 4 4.68 4 4 C2.68 3.67 1.36 3.34 0 3 C0 2.01 0 1.02 0 0 Z " fill="#E2EFFA" transform="translate(279,86)"/>
<path d="M0 0 C-3.19990508 2.74277578 -6.00499382 4.6302836 -10 6 C-9.75 4.125 -9.75 4.125 -9 2 C-6.04454879 -0.11103658 -3.56144099 -0.19785783 0 0 Z " fill="#E6F3FC" transform="translate(324,371)"/>
<path d="M0 0 C0.66 0 1.32 0 2 0 C2.28875 0.969375 2.5775 1.93875 2.875 2.9375 C3.64214682 6.10664203 3.64214682 6.10664203 6 7 C5.67 7.99 5.34 8.98 5 10 C5 9.34 5 8.68 5 8 C4.38125 7.71125 3.7625 7.4225 3.125 7.125 C1 6 1 6 -1 4 C-0.625 1.875 -0.625 1.875 0 0 Z " fill="#EECE53" transform="translate(181,287)"/>
<path d="M0 0 C0.33 0.66 0.66 1.32 1 2 C0.0625 4.625 0.0625 4.625 -1 7 C-2.65 6.67 -4.3 6.34 -6 6 C-5.67 4.68 -5.34 3.36 -5 2 C-4.34 2.66 -3.68 3.32 -3 4 C-2.01 2.68 -1.02 1.36 0 0 Z " fill="#DFCF5C" transform="translate(238,202)"/>
<path d="M0 0 C0.66 0.66 1.32 1.32 2 2 C1.34 2 0.68 2 0 2 C-0.2475 2.598125 -0.495 3.19625 -0.75 3.8125 C-2.16370012 6.28647521 -3.65055383 7.43370255 -6 9 C-6.66 8.67 -7.32 8.34 -8 8 C-5.36 5.36 -2.72 2.72 0 0 Z " fill="#B1C9E9" transform="translate(384,152)"/>
<path d="M0 0 C-4.95 2.97 -4.95 2.97 -10 6 C-10.33 5.01 -10.66 4.02 -11 3 C-10.34 2.67 -9.68 2.34 -9 2 C-8.34 2.33 -7.68 2.66 -7 3 C-7 2.34 -7 1.68 -7 1 C-3.375 -1.125 -3.375 -1.125 0 0 Z " fill="#3F6AA4" transform="translate(182,91)"/>
<path d="M0 0 C4.43090471 1.20842856 6.98112756 2.51668565 10 6 C9.01 6.495 9.01 6.495 8 7 C7.34 6.67 6.68 6.34 6 6 C6 5.34 6 4.68 6 4 C4.02 3.34 2.04 2.68 0 2 C0 1.34 0 0.68 0 0 Z " fill="#335B93" transform="translate(148,374)"/>
<path d="M0 0 C2.3125 0.125 2.3125 0.125 5 1 C6.8125 4.0625 6.8125 4.0625 8 7 C5.05043472 5.63055898 2.47531189 4.12169591 0 2 C0 1.34 0 0.68 0 0 Z " fill="#C9BB72" transform="translate(200,309)"/>
<path d="M0 0 C0.66 0.33 1.32 0.66 2 1 C1.01 2.485 1.01 2.485 0 4 C1.32 4 2.64 4 4 4 C4 4.66 4 5.32 4 6 C0.62537285 5.45276317 -1.08235 4.9451 -4 3 C-3 1 -3 1 0 0 Z " fill="#F7D12E" transform="translate(168,186)"/>
<path d="M0 0 C1.21236328 0.01353516 1.21236328 0.01353516 2.44921875 0.02734375 C3.37154297 0.04474609 3.37154297 0.04474609 4.3125 0.0625 C3.9825 1.0525 3.6525 2.0425 3.3125 3.0625 C-4.11607143 3.34821429 -4.11607143 3.34821429 -7.6875 1.0625 C-4.80538698 0.10179566 -2.98899956 -0.04331883 0 0 Z " fill="#FAC833" transform="translate(279.6875,179.9375)"/>
<path d="M0 0 C3.96 1.98 3.96 1.98 8 4 C7.67 4.99 7.34 5.98 7 7 C5.0625 6.1875 5.0625 6.1875 3 5 C2.67 4.01 2.34 3.02 2 2 C1.01 1.67 0.02 1.34 -1 1 C-0.67 0.67 -0.34 0.34 0 0 Z " fill="#3B619A" transform="translate(321,152)"/>
<path d="M0 0 C4.5076467 0.53031138 7.41954788 2.25221116 11 5 C11 5.66 11 6.32 11 7 C10.34 7 9.68 7 9 7 C9 6.34 9 5.68 9 5 C8.443125 4.896875 7.88625 4.79375 7.3125 4.6875 C4.54289253 3.86410318 2.39747583 2.59831722 0 1 C0 0.67 0 0.34 0 0 Z " fill="#385A96" transform="translate(307,145)"/>
<path d="M0 0 C-3.2678206 2.17854707 -6.38058265 3.49760034 -10 5 C-9.6875 3.0625 -9.6875 3.0625 -9 1 C-5.8035914 -0.06546953 -3.34252724 -0.07427838 0 0 Z " fill="#3B61A1" transform="translate(222,68)"/>
<path d="M0 0 C0.66 0 1.32 0 2 0 C2 0.66 2 1.32 2 2 C3.65 1.67 5.3 1.34 7 1 C7 1.66 7 2.32 7 3 C4.36 3.66 1.72 4.32 -1 5 C-1.33 4.01 -1.66 3.02 -2 2 C-1.34 2 -0.68 2 0 2 C0 1.34 0 0.68 0 0 Z " fill="#25589C" transform="translate(193,402)"/>
<path d="M0 0 C2.64 0.33 5.28 0.66 8 1 C8.66 2.65 9.32 4.3 10 6 C6.40992874 4.66654496 3.20429093 3.1056769 0 1 C0 0.67 0 0.34 0 0 Z " fill="#DFF1FB" transform="translate(144,370)"/>
<path d="M0 0 C2.9375 0.8125 2.9375 0.8125 6 2 C6.33 2.99 6.66 3.98 7 5 C4.03 4.67 1.06 4.34 -2 4 C-1.34 2.68 -0.68 1.36 0 0 Z " fill="#E3F4FA" transform="translate(158,338)"/>
<path d="M0 0 C1.98 0.495 1.98 0.495 4 1 C4 1.66 4 2.32 4 3 C4.99 3 5.98 3 7 3 C7 3.66 7 4.32 7 5 C4.23723823 4.47731534 1.6739124 3.89130413 -1 3 C-0.67 2.01 -0.34 1.02 0 0 Z " fill="#245C9C" transform="translate(295,338)"/>
<path d="M0 0 C-0.66 1.98 -1.32 3.96 -2 6 C-3.65 5.01 -5.3 4.02 -7 3 C-4.74624683 0.74624683 -3.20799182 0 0 0 Z " fill="#EBF3F7" transform="translate(97,336)"/>
<path d="M0 0 C0.33 0 0.66 0 1 0 C1 1.65 1 3.3 1 5 C0.01 5.33 -0.98 5.66 -2 6 C-2.33 6.66 -2.66 7.32 -3 8 C-3.66 7.34 -4.32 6.68 -5 6 C-3.35830472 3.97945196 -1.69088222 1.97956942 0 0 Z " fill="#3D6399" transform="translate(384,332)"/>
<path d="M0 0 C-4.95 2.475 -4.95 2.475 -10 5 C-10.33 4.01 -10.66 3.02 -11 2 C-9.73392393 1.46770674 -8.46189588 0.94955456 -7.1875 0.4375 C-6.47980469 0.14746094 -5.77210938 -0.14257812 -5.04296875 -0.44140625 C-3 -1 -3 -1 0 0 Z " fill="#3A6498" transform="translate(318,334)"/>
<path d="M0 0 C0.66 0 1.32 0 2 0 C1.75 2.375 1.75 2.375 1 5 C-1.0625 6.3125 -1.0625 6.3125 -3 7 C-2.38722388 4.03824877 -1.74627478 2.61941217 0 0 Z " fill="#2457BB" transform="translate(278,305)"/>
<path d="M0 0 C2.5654594 2.5654594 2.54046087 4.47686668 3 8 C2.34 8 1.68 8 1 8 C-0.2890625 6.46875 -0.2890625 6.46875 -1.625 4.5 C-2.29402344 3.52546875 -2.29402344 3.52546875 -2.9765625 2.53125 C-3.31429687 2.0259375 -3.65203125 1.520625 -4 1 C-2.68 1.33 -1.36 1.66 0 2 C0 1.34 0 0.68 0 0 Z " fill="#DDC458" transform="translate(191,296)"/>
<path d="M0 0 C0.33 0 0.66 0 1 0 C1.04254356 1.99954746 1.04080783 4.00041636 1 6 C0 7 0 7 -2.5625 7.0625 C-3.7690625 7.0315625 -3.7690625 7.0315625 -5 7 C-4.19152271 5.83054208 -3.37810888 4.66449539 -2.5625 3.5 C-2.11003906 2.8503125 -1.65757812 2.200625 -1.19140625 1.53125 C-0.79824219 1.0259375 -0.40507812 0.520625 0 0 Z " fill="#2459BE" transform="translate(295,289)"/>
<path d="M0 0 C1.32 0 2.64 0 4 0 C4.33 2.64 4.66 5.28 5 8 C4.34 8 3.68 8 3 8 C2.67 6.68 2.34 5.36 2 4 C1.34 4 0.68 4 0 4 C0 2.68 0 1.36 0 0 Z " fill="#2958BB" transform="translate(233,192)"/>
<path d="M0 0 C2.97 0.495 2.97 0.495 6 1 C5.67 2.32 5.34 3.64 5 5 C4.34 5 3.68 5 3 5 C3 4.34 3 3.68 3 3 C2.01 3 1.02 3 0 3 C0 2.01 0 1.02 0 0 Z " fill="#F4D532" transform="translate(205,187)"/>
<path d="M0 0 C2.9375 0.75 2.9375 0.75 6 2 C6.875 4.125 6.875 4.125 7 6 C3.62496331 4.8141763 1.35277269 3.72426311 -1 1 C-0.67 0.67 -0.34 0.34 0 0 Z " fill="#E0F1FA" transform="translate(308,142)"/>
<path d="M0 0 C3.3 1.65 6.6 3.3 10 5 C9.34 5.66 8.68 6.32 8 7 C6.68 6.34 5.36 5.68 4 5 C4 4.34 4 3.68 4 3 C2.35 2.67 0.7 2.34 -1 2 C-0.67 1.34 -0.34 0.68 0 0 Z " fill="#3B5F9E" transform="translate(267,121)"/>
<path d="M0 0 C0 0.66 0 1.32 0 2 C-3.4019487 4.09350689 -6.05272412 4.17942163 -10 4 C-4.7826087 0 -4.7826087 0 0 0 Z " fill="#E4F6FC" transform="translate(211,76)"/>
<path d="M0 0 C4.23429756 1.31061591 8.07407404 2.94356259 12 5 C12 5.66 12 6.32 12 7 C7.69235185 5.43358249 3.93828536 3.31663844 0 1 C0 0.67 0 0.34 0 0 Z " fill="#40629B" transform="translate(256,72)"/>
<path d="M0 0 C2.9375 1.3125 2.9375 1.3125 6 3 C6.33 3.99 6.66 4.98 7 6 C4.625 5.8125 4.625 5.8125 2 5 C0.6875 2.4375 0.6875 2.4375 0 0 Z " fill="#3A5E96" transform="translate(208,408)"/>
<path d="M0 0 C0.33 0.66 0.66 1.32 1 2 C0 4 0 4 -2.3125 5.1875 C-5 6 -5 6 -9 5 C-6.03 3.35 -3.06 1.7 0 0 Z " fill="#4569A0" transform="translate(343,360)"/>
<path d="M0 0 C0.66 0.33 1.32 0.66 2 1 C1.34 2.65 0.68 4.3 0 6 C-1.32 5.67 -2.64 5.34 -4 5 C-3 2 -3 2 0 0 Z " fill="#3964A4" transform="translate(375,341)"/>
<path d="M0 0 C-2.91765 1.9451 -4.62537285 2.45276317 -8 3 C-8 1.68 -8 0.36 -8 -1 C-4.37673261 -2.2077558 -3.35853631 -1.54311128 0 0 Z " fill="#2C5AB7" transform="translate(320,330)"/>
<path d="M0 0 C1.65 0 3.3 0 5 0 C0.25 4.875 0.25 4.875 -2 6 C-2 4.68 -2 3.36 -2 2 C-1.34 2 -0.68 2 0 2 C0 1.34 0 0.68 0 0 Z " fill="#DECA5F" transform="translate(252,319)"/>
<path d="M0 0 C0.66 0.33 1.32 0.66 2 1 C1.34 2.65 0.68 4.3 0 6 C-1.32 6 -2.64 6 -4 6 C-4 5.01 -4 4.02 -4 3 C-3.01 2.67 -2.02 2.34 -1 2 C-0.67 1.34 -0.34 0.68 0 0 Z " fill="#29589C" transform="translate(200,311)"/>
<path d="M0 0 C-0.75 2.4375 -0.75 2.4375 -2 5 C-4.125 5.8125 -4.125 5.8125 -6 6 C-3.84615385 0 -3.84615385 0 0 0 Z " fill="#FCD429" transform="translate(280,290)"/>
<path d="M0 0 C2.64752004 2.57784846 4.94432065 4.91648098 7 8 C6.01 8 5.02 8 4 8 C2.66666667 6.66666667 1.33333333 5.33333333 0 4 C0 2.68 0 1.36 0 0 Z " fill="#446383" transform="translate(165,274)"/>
<path d="M0 0 C1.32 0 2.64 0 4 0 C5.5625 2.8125 5.5625 2.8125 7 6 C6.67 6.99 6.34 7.98 6 9 C5.67 7.68 5.34 6.36 5 5 C4.34 5 3.68 5 3 5 C1.375 2.5 1.375 2.5 0 0 Z " fill="#406AAE" transform="translate(111,178)"/>
<path d="M0 0 C0.99 0.66 1.98 1.32 3 2 C2.360625 2.391875 1.72125 2.78375 1.0625 3.1875 C-1.43778819 5.38472296 -1.64950425 6.75791433 -2 10 C-4 6.25 -4 6.25 -4 4 C-3.34 4 -2.68 4 -2 4 C-2 3.34 -2 2.68 -2 2 C-1.34 2 -0.68 2 0 2 C0 1.34 0 0.68 0 0 Z " fill="#4069A4" transform="translate(357,176)"/>
<path d="M0 0 C2.31 0.66 4.62 1.32 7 2 C5.35 3.32 3.7 4.64 2 6 C1.67 5.01 1.34 4.02 1 3 C0.34 2.34 -0.32 1.68 -1 1 C-0.67 0.67 -0.34 0.34 0 0 Z " fill="#3663A6" transform="translate(113,124)"/>
<path d="M0 0 C2.475 0.99 2.475 0.99 5 2 C3.625 4 3.625 4 2 6 C1.34 6 0.68 6 0 6 C-1.125 2.25 -1.125 2.25 0 0 Z " fill="#E8F2F8" transform="translate(185,353)"/>
<path d="M0 0 C0.99 0.33 1.98 0.66 3 1 C3.73046875 3.06640625 3.73046875 3.06640625 4.1875 5.5625 C4.34605469 6.38878906 4.50460938 7.21507812 4.66796875 8.06640625 C4.77753906 8.70449219 4.88710937 9.34257812 5 10 C3 9 3 9 2.1484375 6.93359375 C1.89320312 6.10988281 1.63796875 5.28617187 1.375 4.4375 C1.11460938 3.61121094 0.85421875 2.78492188 0.5859375 1.93359375 C0.39257812 1.29550781 0.19921875 0.65742188 0 0 Z " fill="#DBEDFA" transform="translate(79,320)"/>
<path d="M0 0 C2.97 0.495 2.97 0.495 6 1 C6.33 1.99 6.66 2.98 7 4 C7.66 4 8.32 4 9 4 C8.67 4.66 8.34 5.32 8 6 C6.66402348 5.19185349 5.331275 4.37836819 4 3.5625 C3.2575 3.11003906 2.515 2.65757812 1.75 2.19140625 C1.1725 1.79824219 0.595 1.40507812 0 1 C0 0.67 0 0.34 0 0 Z " fill="#4169A2" transform="translate(131,321)"/>
<path d="M0 0 C0.33 0.99 0.66 1.98 1 3 C1.99 2.67 2.98 2.34 4 2 C3.67 3.32 3.34 4.64 3 6 C0.525 5.01 0.525 5.01 -2 4 C-1.34 2.68 -0.68 1.36 0 0 Z " fill="#2B5F8F" transform="translate(311,263)"/>
<path d="M0 0 C0.99 0 1.98 0 3 0 C3.33 1.32 3.66 2.64 4 4 C2.02 4.99 2.02 4.99 0 6 C0 4.02 0 2.04 0 0 Z " fill="#1E5FA4" transform="translate(240,188)"/>
<path d="M0 0 C1 3 1 3 0 6 C-1.32 6 -2.64 6 -4 6 C-3.6875 4.125 -3.6875 4.125 -3 2 C-2.01 1.34 -1.02 0.68 0 0 Z " fill="#D4E9F9" transform="translate(359,178)"/>
<path d="M0 0 C1.65 0 3.3 0 5 0 C5 0.66 5 1.32 5 2 C4.01 2 3.02 2 2 2 C2 2.66 2 3.32 2 4 C0.68 4 -0.64 4 -2 4 C-1.34 2.68 -0.68 1.36 0 0 Z " fill="#2A55BB" transform="translate(216,178)"/>
<path d="M0 0 C3.375 0.25 3.375 0.25 7 1 C8.4375 3.0625 8.4375 3.0625 9 5 C5.54074837 3.7508258 2.85306797 2.32472205 0 0 Z " fill="#DBEEFB" transform="translate(315,148)"/>
<path d="M0 0 C0.66 0 1.32 0 2 0 C5 4.38461538 5 4.38461538 5 7 C3 7 3 7 0.875 5 C0.25625 4.34 -0.3625 3.68 -1 3 C-0.67 2.01 -0.34 1.02 0 0 Z " fill="#27599A" transform="translate(187,129)"/>
<path d="M0 0 C1.32 0.66 2.64 1.32 4 2 C0.04 3.98 0.04 3.98 -4 6 C-4 4.68 -4 3.36 -4 2 C-2.25 0.875 -2.25 0.875 0 0 Z " fill="#E0F3F8" transform="translate(202,117)"/>
<path d="M0 0 C3.79303725 1.00193437 6.71536341 1.81024227 10 4 C10 4.66 10 5.32 10 6 C6.40992874 4.66654496 3.20429093 3.1056769 0 1 C0 0.67 0 0.34 0 0 Z " fill="#3A6093" transform="translate(272,81)"/>
<path d="M0 0 C3.73487777 0.4979837 5.81237635 0.87491756 9 3 C9 3.66 9 4.32 9 5 C5.54074837 3.7508258 2.85306797 2.32472205 0 0 Z " fill="#D7EEF8" transform="translate(157,378)"/>
<path d="M0 0 C0.7425 0.45375 1.485 0.9075 2.25 1.375 C4.46930578 2.68640796 6.67967822 3.88280803 9 5 C6.69 5 4.38 5 2 5 C1.34 3.35 0.68 1.7 0 0 Z " fill="#3B6285" transform="translate(227,332)"/>
<path d="M0 0 C0.66 0 1.32 0 2 0 C2.33 1.32 2.66 2.64 3 4 C3.66 4 4.32 4 5 4 C5 4.99 5 5.98 5 7 C4.01 7 3.02 7 2 7 C1.34 4.69 0.68 2.38 0 0 Z " fill="#EAFCFB" transform="translate(83,326)"/>
<path d="M0 0 C2.3125 0.1875 2.3125 0.1875 5 1 C6.8125 3.5625 6.8125 3.5625 8 6 C4.63408134 4.55746343 2.48952921 2.66735273 0 0 Z " fill="#C9C064" transform="translate(215,322)"/>
<path d="M0 0 C1.65 0.33 3.3 0.66 5 1 C2.31158141 3.25245881 0.35358125 4.88213958 -3 6 C-3 5.01 -3 4.02 -3 3 C-2.01 3 -1.02 3 0 3 C0 2.01 0 1.02 0 0 Z " fill="#466BA3" transform="translate(339,317)"/>
<path d="M0 0 C1.32 0.33 2.64 0.66 4 1 C4.625 2.875 4.625 2.875 5 5 C4.34 5.66 3.68 6.32 3 7 C3 6.34 3 5.68 3 5 C2.34 5 1.68 5 1 5 C0.67 3.35 0.34 1.7 0 0 Z " fill="#FDCD27" transform="translate(164,263)"/>
<path d="M0 0 C2.475 0.495 2.475 0.495 5 1 C5 2.65 5 4.3 5 6 C3.31237149 4.3545622 1.6459651 2.68711423 0 1 C0 0.67 0 0.34 0 0 Z " fill="#435E88" transform="translate(312,192)"/>
<path d="M0 0 C2.64 0.66 5.28 1.32 8 2 C7.67 3.32 7.34 4.64 7 6 C5.83054208 5.19152271 4.66449539 4.37810888 3.5 3.5625 C2.8503125 3.11003906 2.200625 2.65757812 1.53125 2.19140625 C1.0259375 1.79824219 0.520625 1.40507812 0 1 C0 0.67 0 0.34 0 0 Z " fill="#566A75" transform="translate(304,186)"/>
<path d="M0 0 C2.66666667 0.66666667 5.33333333 1.33333333 8 2 C8 2.66 8 3.32 8 4 C4.28400809 4.20086443 3.22791555 4.1519437 0 2 C0 1.34 0 0.68 0 0 Z " fill="#FED326" transform="translate(260,186)"/>
<path d="M0 0 C0.99 0.33 1.98 0.66 3 1 C1.35 2.65 -0.3 4.3 -2 6 C-2.33 4.68 -2.66 3.36 -3 2 C-2.01 2 -1.02 2 0 2 C0 1.34 0 0.68 0 0 Z " fill="#395997" transform="translate(248,185)"/>
<path d="M0 0 C-0.33 0.66 -0.66 1.32 -1 2 C-3.97 1.67 -6.94 1.34 -10 1 C-5.64467851 -1.17766075 -4.53374042 -1.03039555 0 0 Z " fill="#FBCE4A" transform="translate(194,180)"/>
<path d="M0 0 C1.33333333 0.66666667 2.66666667 1.33333333 4 2 C4 3.65 4 5.3 4 7 C2.02 5.35 0.04 3.7 -2 2 C-1.34 1.34 -0.68 0.68 0 0 Z " fill="#5076AF" transform="translate(97,161)"/>
<path d="M0 0 C1.65 1.65 3.3 3.3 5 5 C4.67 5.66 4.34 6.32 4 7 C2.68 6.34 1.36 5.68 0 5 C0 3.35 0 1.7 0 0 Z " fill="#3B639F" transform="translate(134,151)"/>
<path d="M0 0 C1.98 0 3.96 0 6 0 C3.31158141 2.25245881 1.35358125 3.88213958 -2 5 C-2.33 4.34 -2.66 3.68 -3 3 C-2.01 3 -1.02 3 0 3 C0 2.01 0 1.02 0 0 Z " fill="#38639A" transform="translate(140,111)"/>
<path d="M0 0 C0.33 0.66 0.66 1.32 1 2 C1.66 2 2.32 2 3 2 C3 2.99 3 3.98 3 5 C0.0280615 3.87548273 -2.33440687 2.77706209 -5 1 C-3 0 -3 0 0 0 Z " fill="#DDEDF8" transform="translate(250,107)"/>
<path d="M0 0 C3.96 1.98 3.96 1.98 8 4 C7.67 4.66 7.34 5.32 7 6 C4.625 5.25 4.625 5.25 2 4 C1.34 2.68 0.68 1.36 0 0 Z " fill="#DBEEFA" transform="translate(199,361)"/>
<path d="M0 0 C2.97 0.99 5.94 1.98 9 3 C8.67 3.66 8.34 4.32 8 5 C4.35446828 3.7191375 2.83328987 2.83328987 0 0 Z " fill="#3A5D9D" transform="translate(194,357)"/>
<path d="M0 0 C3.96 1.98 3.96 1.98 8 4 C7.67 4.66 7.34 5.32 7 6 C6.01 5.67 5.02 5.34 4 5 C4 4.34 4 3.68 4 3 C2.68 2.67 1.36 2.34 0 2 C0 1.34 0 0.68 0 0 Z " fill="#DEF2FC" transform="translate(150,333)"/>
<path d="M0 0 C0.66 1.32 1.32 2.64 2 4 C0.625 6 0.625 6 -1 8 C-1.66 8 -2.32 8 -3 8 C-2.690625 7.236875 -2.38125 6.47375 -2.0625 5.6875 C-1.32106407 3.81210323 -0.63771783 1.91315348 0 0 Z " fill="#41679F" transform="translate(388,324)"/>
<path d="M0 0 C1.32 0 2.64 0 4 0 C3.6875 1.9375 3.6875 1.9375 3 4 C2.01 4.33 1.02 4.66 0 5 C0 3.35 0 1.7 0 0 Z " fill="#EED247" transform="translate(256,314)"/>
<path d="M0 0 C0.86625 0.3403125 0.86625 0.3403125 1.75 0.6875 C0 2.25 0 2.25 -2.25 3.6875 C-4.5 3.375 -4.5 3.375 -6.25 2.6875 C-2.80384615 -0.38942308 -2.80384615 -0.38942308 0 0 Z " fill="#4E6E89" transform="translate(267.25,312.3125)"/>
<path d="M0 0 C2.97 0.495 2.97 0.495 6 1 C6 1.66 6 2.32 6 3 C3.36 3 0.72 3 -2 3 C-1.34 2.01 -0.68 1.02 0 0 Z " fill="#F0D33D" transform="translate(298,185)"/>
<path d="M0 0 C0.99 0 1.98 0 3 0 C3 1.65 3 3.3 3 5 C2.01 5.33 1.02 5.66 0 6 C0 4.02 0 2.04 0 0 Z " fill="#2355BC" transform="translate(74,160)"/>
<path d="M0 0 C0.99 0.33 1.98 0.66 3 1 C2.34 2.32 1.68 3.64 1 5 C-0.32 4.67 -1.64 4.34 -3 4 C-3 3.34 -3 2.68 -3 2 C-2.01 1.34 -1.02 0.68 0 0 Z " fill="#3462A0" transform="translate(150,150)"/>
<path d="M0 0 C0.33 1.32 0.66 2.64 1 4 C-1.375 5.5625 -1.375 5.5625 -4 7 C-4.66 6.67 -5.32 6.34 -6 6 C-4.02 4.02 -2.04 2.04 0 0 Z " fill="#5373AB" transform="translate(354,132)"/>
<path d="M0 0 C0.66 0 1.32 0 2 0 C1.67 1.98 1.34 3.96 1 6 C0.01 6.33 -0.98 6.66 -2 7 C-1.125 1.125 -1.125 1.125 0 0 Z " fill="#2B56A5" transform="translate(357,129)"/>
<path d="M0 0 C0.556875 0.226875 1.11375 0.45375 1.6875 0.6875 C-5.0625 4.6875 -5.0625 4.6875 -7.3125 4.6875 C-7.3125 4.0275 -7.3125 3.3675 -7.3125 2.6875 C-3.15982824 -0.42700382 -3.15982824 -0.42700382 0 0 Z " fill="#386197" transform="translate(135.3125,116.3125)"/>
</svg>
